<svg width="1474" height="395" viewBox="0 0 1474 395" fill="none" xmlns="http://www.w3.org/2000/svg">
<g clip-path="url(#clip0_2523_2246)">
<rect width="1474" height="395" fill="white"/>
<rect x="764" y="88" width="182" height="99" fill="white" stroke="#007BFF" stroke-width="4"/>
<rect x="1008" y="88" width="182" height="99" fill="white" stroke="#007BFF" stroke-width="4"/>
<rect x="1252" y="88" width="182" height="99" fill="white" stroke="#007BFF" stroke-width="4"/>
<path d="M804.271 144.016V119.442H797.671L781.092 142.835V148.201H799.657V157H804.271V148.201H809.422V144.016H804.271ZM786.029 144.016V142.835L798.53 124.754H799.71V144.016H786.029ZM828.592 118.691C820.652 118.691 814.803 124.701 814.803 138.221C814.803 151.742 820.652 157.697 828.592 157.697C836.533 157.697 842.435 151.742 842.435 138.221C842.435 124.701 836.533 118.691 828.592 118.691ZM828.592 153.513C822.368 153.513 819.525 147.503 819.525 138.221C819.525 128.885 822.368 122.876 828.592 122.876C834.87 122.876 837.713 128.885 837.713 138.221C837.713 147.503 834.87 153.513 828.592 153.513Z" fill="#274867"/>
<rect x="520" y="88" width="182" height="99" fill="white" stroke="#007BFF" stroke-width="4"/>
<rect x="32" y="88" width="182" height="99" fill="white" stroke="#007BFF" stroke-width="4"/>
<rect x="276" y="88" width="182" height="99" fill="white" stroke="#007BFF" stroke-width="4"/>
<line x1="369" y1="90" x2="369" y2="185" stroke="#274867" stroke-width="4"/>
<line x1="613" y1="90" x2="613" y2="185" stroke="#274867" stroke-width="4"/>
<line x1="857" y1="90" x2="857" y2="185" stroke="#274867" stroke-width="4"/>
<line x1="1101" y1="90" x2="1101" y2="185" stroke="#274867" stroke-width="4"/>
<line x1="1345" y1="90" x2="1345" y2="185" stroke="#274867" stroke-width="4"/>
<path d="M72.2709 144.016V119.442H65.6715L49.0925 142.835V148.201H67.6566V157H72.2709V148.201H77.4216V144.016H72.2709ZM54.0286 144.016V142.835L66.5299 124.754H67.7103V144.016H54.0286ZM87.4175 129.798C87.9004 125.076 90.8514 122.876 95.09 122.876C99.6506 122.876 102.655 125.398 102.655 130.12C102.655 134.573 99.3823 137.631 96.8069 139.938C94.8217 141.762 91.2806 144.767 88.276 147.181L82.7497 151.688V157H108.557V152.815H89.6173V151.635L99.0604 143.694C103.514 139.992 107.377 135.217 107.377 130.12C107.377 122.608 102.226 118.691 95.1973 118.691C88.5443 118.691 83.1252 122.286 82.696 129.798H87.4175Z" fill="#274867"/>
<path d="M295.239 119.442V123.52H311.657V124.701L302.482 132.641V137.631C303.34 137.416 304.413 137.309 305.755 137.309C311.281 137.309 314.232 140.367 314.232 145.304C314.232 150.454 310.852 153.513 305.701 153.513C301.194 153.513 297.707 150.776 297.277 146.484H292.556C292.985 152.869 298.082 157.697 305.701 157.697C313.374 157.697 318.954 153.083 318.954 145.304C318.954 138.06 314.232 134.036 307.794 133.875V132.749L317.183 124.701V119.442H295.239ZM335.872 143.855C340.379 143.855 343.384 141.762 344.672 140.206H345.852C345.584 148.415 342.15 153.513 336.141 153.513C332.492 153.513 330.453 151.903 329.541 148.737H324.873C325.732 153.888 329.756 157.697 336.141 157.697C345.959 157.697 350.413 148.576 350.413 137.148C350.413 123.627 344.618 118.691 336.624 118.691C328.629 118.691 323.854 124.486 323.854 131.622C323.854 138.758 329.005 143.855 335.872 143.855ZM336.677 122.876C341.238 122.876 344.94 125.988 344.94 131.461C344.94 136.826 341.291 139.724 336.785 139.724C332.224 139.724 328.576 136.987 328.576 131.407C328.576 125.827 332.117 122.876 336.677 122.876Z" fill="#274867"/>
<path d="M45.68 46.555V56.25H44.91C43.93 54.99 42.32 53.905 39.52 53.905C34.655 53.905 31.785 57.86 31.785 63.18C31.785 68.395 34.655 72.455 39.52 72.455C42.32 72.455 44.035 71.335 45.015 70.11H45.785V72H48.655V46.555H45.68ZM40.185 69.865C36.65 69.865 34.76 67.1 34.76 63.18C34.76 59.26 36.65 56.495 40.185 56.495C44.105 56.495 45.715 59.715 45.715 63.18C45.715 66.645 44.105 69.865 40.185 69.865ZM65.6382 72H68.4382V59.995C68.4382 56.04 65.6032 53.905 61.1582 53.905C57.2032 53.905 54.4032 55.795 54.1582 59.05H57.1332C57.2732 57.51 58.6032 56.495 61.2282 56.495C64.3082 56.495 65.5332 58.035 65.5332 60.17V60.87H59.7932C54.8932 60.87 53.0382 63.88 53.0382 66.715C53.0382 69.725 55.3132 72.455 59.3732 72.455C61.8932 72.455 63.7832 71.51 64.8682 70.145H65.6382V72ZM60.1082 69.865C57.4832 69.865 56.0132 68.605 56.0132 66.61C56.0132 64.51 57.3432 63.25 60.2482 63.25H65.5332V64.86C65.5332 67.66 63.0482 69.865 60.1082 69.865ZM77.9806 54.36V49.04H75.0056V54.36H71.9606V56.95H75.0056V67.065C75.0056 70.81 77.2456 72 81.0606 72H82.4256V69.34H81.1306C78.7506 69.34 77.9806 68.43 77.9806 66.645V56.95H82.4256V54.36H77.9806ZM98.5532 72H101.353V59.995C101.353 56.04 98.5182 53.905 94.0732 53.905C90.1182 53.905 87.3182 55.795 87.0732 59.05H90.0482C90.1882 57.51 91.5182 56.495 94.1432 56.495C97.2232 56.495 98.4482 58.035 98.4482 60.17V60.87H92.7082C87.8082 60.87 85.9532 63.88 85.9532 66.715C85.9532 69.725 88.2282 72.455 92.2882 72.455C94.8082 72.455 96.6982 71.51 97.7832 70.145H98.5532V72ZM93.0232 69.865C90.3982 69.865 88.9282 68.605 88.9282 66.61C88.9282 64.51 90.2582 63.25 93.1632 63.25H98.4482V64.86C98.4482 67.66 95.9632 69.865 93.0232 69.865Z" fill="#274867"/>
<path d="M159.87 46.555V72H162.845V46.555H159.87ZM171.736 49.775V46.555H168.586V49.775H171.736ZM171.631 54.36H168.656V72H171.631V54.36ZM193.153 72V60.8C193.153 56.565 190.773 53.905 186.433 53.905C184.053 53.905 182.093 54.885 181.113 56.25H180.343V54.36H177.473V72H180.448V62.445C180.448 59.33 182.548 56.565 185.698 56.565C188.673 56.565 190.178 58.175 190.178 61.43V72H193.153ZM214.626 72L208.361 59.785L213.436 54.36H209.901L201.571 63.215V46.555H198.596V72H201.571V66.89L205.631 62.41H206.401L211.441 72H214.626Z" fill="#274867"/>
<path d="M289.68 46.555V56.25H288.91C287.93 54.99 286.32 53.905 283.52 53.905C278.655 53.905 275.785 57.86 275.785 63.18C275.785 68.395 278.655 72.455 283.52 72.455C286.32 72.455 288.035 71.335 289.015 70.11H289.785V72H292.655V46.555H289.68ZM284.185 69.865C280.65 69.865 278.76 67.1 278.76 63.18C278.76 59.26 280.65 56.495 284.185 56.495C288.105 56.495 289.715 59.715 289.715 63.18C289.715 66.645 288.105 69.865 284.185 69.865ZM309.638 72H312.438V59.995C312.438 56.04 309.603 53.905 305.158 53.905C301.203 53.905 298.403 55.795 298.158 59.05H301.133C301.273 57.51 302.603 56.495 305.228 56.495C308.308 56.495 309.533 58.035 309.533 60.17V60.87H303.793C298.893 60.87 297.038 63.88 297.038 66.715C297.038 69.725 299.313 72.455 303.373 72.455C305.893 72.455 307.783 71.51 308.868 70.145H309.638V72ZM304.108 69.865C301.483 69.865 300.013 68.605 300.013 66.61C300.013 64.51 301.343 63.25 304.248 63.25H309.533V64.86C309.533 67.66 307.048 69.865 304.108 69.865ZM321.981 54.36V49.04H319.006V54.36H315.961V56.95H319.006V67.065C319.006 70.81 321.246 72 325.061 72H326.426V69.34H325.131C322.751 69.34 321.981 68.43 321.981 66.645V56.95H326.426V54.36H321.981ZM342.553 72H345.353V59.995C345.353 56.04 342.518 53.905 338.073 53.905C334.118 53.905 331.318 55.795 331.073 59.05H334.048C334.188 57.51 335.518 56.495 338.143 56.495C341.223 56.495 342.448 58.035 342.448 60.17V60.87H336.708C331.808 60.87 329.953 63.88 329.953 66.715C329.953 69.725 332.228 72.455 336.288 72.455C338.808 72.455 340.698 71.51 341.783 70.145H342.553V72ZM337.023 69.865C334.398 69.865 332.928 68.605 332.928 66.61C332.928 64.51 334.258 63.25 337.163 63.25H342.448V64.86C342.448 67.66 339.963 69.865 337.023 69.865Z" fill="#274867"/>
<path d="M403.87 46.555V72H406.845V46.555H403.87ZM415.736 49.775V46.555H412.586V49.775H415.736ZM415.631 54.36H412.656V72H415.631V54.36ZM437.153 72V60.8C437.153 56.565 434.773 53.905 430.433 53.905C428.053 53.905 426.093 54.885 425.113 56.25H424.343V54.36H421.473V72H424.448V62.445C424.448 59.33 426.548 56.565 429.698 56.565C432.673 56.565 434.178 58.175 434.178 61.43V72H437.153ZM458.626 72L452.361 59.785L457.436 54.36H453.901L445.571 63.215V46.555H442.596V72H445.571V66.89L449.631 62.41H450.401L455.441 72H458.626Z" fill="#274867"/>
<path d="M533.68 46.555V56.25H532.91C531.93 54.99 530.32 53.905 527.52 53.905C522.655 53.905 519.785 57.86 519.785 63.18C519.785 68.395 522.655 72.455 527.52 72.455C530.32 72.455 532.035 71.335 533.015 70.11H533.785V72H536.655V46.555H533.68ZM528.185 69.865C524.65 69.865 522.76 67.1 522.76 63.18C522.76 59.26 524.65 56.495 528.185 56.495C532.105 56.495 533.715 59.715 533.715 63.18C533.715 66.645 532.105 69.865 528.185 69.865ZM553.638 72H556.438V59.995C556.438 56.04 553.603 53.905 549.158 53.905C545.203 53.905 542.403 55.795 542.158 59.05H545.133C545.273 57.51 546.603 56.495 549.228 56.495C552.308 56.495 553.533 58.035 553.533 60.17V60.87H547.793C542.893 60.87 541.038 63.88 541.038 66.715C541.038 69.725 543.313 72.455 547.373 72.455C549.893 72.455 551.783 71.51 552.868 70.145H553.638V72ZM548.108 69.865C545.483 69.865 544.013 68.605 544.013 66.61C544.013 64.51 545.343 63.25 548.248 63.25H553.533V64.86C553.533 67.66 551.048 69.865 548.108 69.865ZM565.981 54.36V49.04H563.006V54.36H559.961V56.95H563.006V67.065C563.006 70.81 565.246 72 569.061 72H570.426V69.34H569.131C566.751 69.34 565.981 68.43 565.981 66.645V56.95H570.426V54.36H565.981ZM586.553 72H589.353V59.995C589.353 56.04 586.518 53.905 582.073 53.905C578.118 53.905 575.318 55.795 575.073 59.05H578.048C578.188 57.51 579.518 56.495 582.143 56.495C585.223 56.495 586.448 58.035 586.448 60.17V60.87H580.708C575.808 60.87 573.953 63.88 573.953 66.715C573.953 69.725 576.228 72.455 580.288 72.455C582.808 72.455 584.698 71.51 585.783 70.145H586.553V72ZM581.023 69.865C578.398 69.865 576.928 68.605 576.928 66.61C576.928 64.51 578.258 63.25 581.163 63.25H586.448V64.86C586.448 67.66 583.963 69.865 581.023 69.865Z" fill="#274867"/>
<path d="M647.87 46.555V72H650.845V46.555H647.87ZM659.736 49.775V46.555H656.586V49.775H659.736ZM659.631 54.36H656.656V72H659.631V54.36ZM681.153 72V60.8C681.153 56.565 678.773 53.905 674.433 53.905C672.053 53.905 670.093 54.885 669.113 56.25H668.343V54.36H665.473V72H668.448V62.445C668.448 59.33 670.548 56.565 673.698 56.565C676.673 56.565 678.178 58.175 678.178 61.43V72H681.153ZM702.626 72L696.361 59.785L701.436 54.36H697.901L689.571 63.215V46.555H686.596V72H689.571V66.89L693.631 62.41H694.401L699.441 72H702.626Z" fill="#274867"/>
<path d="M777.68 46.555V56.25H776.91C775.93 54.99 774.32 53.905 771.52 53.905C766.655 53.905 763.785 57.86 763.785 63.18C763.785 68.395 766.655 72.455 771.52 72.455C774.32 72.455 776.035 71.335 777.015 70.11H777.785V72H780.655V46.555H777.68ZM772.185 69.865C768.65 69.865 766.76 67.1 766.76 63.18C766.76 59.26 768.65 56.495 772.185 56.495C776.105 56.495 777.715 59.715 777.715 63.18C777.715 66.645 776.105 69.865 772.185 69.865ZM797.638 72H800.438V59.995C800.438 56.04 797.603 53.905 793.158 53.905C789.203 53.905 786.403 55.795 786.158 59.05H789.133C789.273 57.51 790.603 56.495 793.228 56.495C796.308 56.495 797.533 58.035 797.533 60.17V60.87H791.793C786.893 60.87 785.038 63.88 785.038 66.715C785.038 69.725 787.313 72.455 791.373 72.455C793.893 72.455 795.783 71.51 796.868 70.145H797.638V72ZM792.108 69.865C789.483 69.865 788.013 68.605 788.013 66.61C788.013 64.51 789.343 63.25 792.248 63.25H797.533V64.86C797.533 67.66 795.048 69.865 792.108 69.865ZM809.981 54.36V49.04H807.006V54.36H803.961V56.95H807.006V67.065C807.006 70.81 809.246 72 813.061 72H814.426V69.34H813.131C810.751 69.34 809.981 68.43 809.981 66.645V56.95H814.426V54.36H809.981ZM830.553 72H833.353V59.995C833.353 56.04 830.518 53.905 826.073 53.905C822.118 53.905 819.318 55.795 819.073 59.05H822.048C822.188 57.51 823.518 56.495 826.143 56.495C829.223 56.495 830.448 58.035 830.448 60.17V60.87H824.708C819.808 60.87 817.953 63.88 817.953 66.715C817.953 69.725 820.228 72.455 824.288 72.455C826.808 72.455 828.698 71.51 829.783 70.145H830.553V72ZM825.023 69.865C822.398 69.865 820.928 68.605 820.928 66.61C820.928 64.51 822.258 63.25 825.163 63.25H830.448V64.86C830.448 67.66 827.963 69.865 825.023 69.865Z" fill="#274867"/>
<path d="M891.87 46.555V72H894.845V46.555H891.87ZM903.736 49.775V46.555H900.586V49.775H903.736ZM903.631 54.36H900.656V72H903.631V54.36ZM925.153 72V60.8C925.153 56.565 922.773 53.905 918.433 53.905C916.053 53.905 914.093 54.885 913.113 56.25H912.343V54.36H909.473V72H912.448V62.445C912.448 59.33 914.548 56.565 917.698 56.565C920.673 56.565 922.178 58.175 922.178 61.43V72H925.153ZM946.626 72L940.361 59.785L945.436 54.36H941.901L933.571 63.215V46.555H930.596V72H933.571V66.89L937.631 62.41H938.401L943.441 72H946.626Z" fill="#274867"/>
<path d="M1021.68 46.555V56.25H1020.91C1019.93 54.99 1018.32 53.905 1015.52 53.905C1010.66 53.905 1007.79 57.86 1007.79 63.18C1007.79 68.395 1010.66 72.455 1015.52 72.455C1018.32 72.455 1020.04 71.335 1021.02 70.11H1021.79V72H1024.66V46.555H1021.68ZM1016.19 69.865C1012.65 69.865 1010.76 67.1 1010.76 63.18C1010.76 59.26 1012.65 56.495 1016.19 56.495C1020.11 56.495 1021.72 59.715 1021.72 63.18C1021.72 66.645 1020.11 69.865 1016.19 69.865ZM1041.64 72H1044.44V59.995C1044.44 56.04 1041.6 53.905 1037.16 53.905C1033.2 53.905 1030.4 55.795 1030.16 59.05H1033.13C1033.27 57.51 1034.6 56.495 1037.23 56.495C1040.31 56.495 1041.53 58.035 1041.53 60.17V60.87H1035.79C1030.89 60.87 1029.04 63.88 1029.04 66.715C1029.04 69.725 1031.31 72.455 1035.37 72.455C1037.89 72.455 1039.78 71.51 1040.87 70.145H1041.64V72ZM1036.11 69.865C1033.48 69.865 1032.01 68.605 1032.01 66.61C1032.01 64.51 1033.34 63.25 1036.25 63.25H1041.53V64.86C1041.53 67.66 1039.05 69.865 1036.11 69.865ZM1053.98 54.36V49.04H1051.01V54.36H1047.96V56.95H1051.01V67.065C1051.01 70.81 1053.25 72 1057.06 72H1058.43V69.34H1057.13C1054.75 69.34 1053.98 68.43 1053.98 66.645V56.95H1058.43V54.36H1053.98ZM1074.55 72H1077.35V59.995C1077.35 56.04 1074.52 53.905 1070.07 53.905C1066.12 53.905 1063.32 55.795 1063.07 59.05H1066.05C1066.19 57.51 1067.52 56.495 1070.14 56.495C1073.22 56.495 1074.45 58.035 1074.45 60.17V60.87H1068.71C1063.81 60.87 1061.95 63.88 1061.95 66.715C1061.95 69.725 1064.23 72.455 1068.29 72.455C1070.81 72.455 1072.7 71.51 1073.78 70.145H1074.55V72ZM1069.02 69.865C1066.4 69.865 1064.93 68.605 1064.93 66.61C1064.93 64.51 1066.26 63.25 1069.16 63.25H1074.45V64.86C1074.45 67.66 1071.96 69.865 1069.02 69.865Z" fill="#274867"/>
<path d="M1135.87 46.555V72H1138.85V46.555H1135.87ZM1147.74 49.775V46.555H1144.59V49.775H1147.74ZM1147.63 54.36H1144.66V72H1147.63V54.36ZM1169.15 72V60.8C1169.15 56.565 1166.77 53.905 1162.43 53.905C1160.05 53.905 1158.09 54.885 1157.11 56.25H1156.34V54.36H1153.47V72H1156.45V62.445C1156.45 59.33 1158.55 56.565 1161.7 56.565C1164.67 56.565 1166.18 58.175 1166.18 61.43V72H1169.15ZM1190.63 72L1184.36 59.785L1189.44 54.36H1185.9L1177.57 63.215V46.555H1174.6V72H1177.57V66.89L1181.63 62.41H1182.4L1187.44 72H1190.63Z" fill="#274867"/>
<path d="M1265.68 46.555V56.25H1264.91C1263.93 54.99 1262.32 53.905 1259.52 53.905C1254.66 53.905 1251.79 57.86 1251.79 63.18C1251.79 68.395 1254.66 72.455 1259.52 72.455C1262.32 72.455 1264.04 71.335 1265.02 70.11H1265.79V72H1268.66V46.555H1265.68ZM1260.19 69.865C1256.65 69.865 1254.76 67.1 1254.76 63.18C1254.76 59.26 1256.65 56.495 1260.19 56.495C1264.11 56.495 1265.72 59.715 1265.72 63.18C1265.72 66.645 1264.11 69.865 1260.19 69.865ZM1285.64 72H1288.44V59.995C1288.44 56.04 1285.6 53.905 1281.16 53.905C1277.2 53.905 1274.4 55.795 1274.16 59.05H1277.13C1277.27 57.51 1278.6 56.495 1281.23 56.495C1284.31 56.495 1285.53 58.035 1285.53 60.17V60.87H1279.79C1274.89 60.87 1273.04 63.88 1273.04 66.715C1273.04 69.725 1275.31 72.455 1279.37 72.455C1281.89 72.455 1283.78 71.51 1284.87 70.145H1285.64V72ZM1280.11 69.865C1277.48 69.865 1276.01 68.605 1276.01 66.61C1276.01 64.51 1277.34 63.25 1280.25 63.25H1285.53V64.86C1285.53 67.66 1283.05 69.865 1280.11 69.865ZM1297.98 54.36V49.04H1295.01V54.36H1291.96V56.95H1295.01V67.065C1295.01 70.81 1297.25 72 1301.06 72H1302.43V69.34H1301.13C1298.75 69.34 1297.98 68.43 1297.98 66.645V56.95H1302.43V54.36H1297.98ZM1318.55 72H1321.35V59.995C1321.35 56.04 1318.52 53.905 1314.07 53.905C1310.12 53.905 1307.32 55.795 1307.07 59.05H1310.05C1310.19 57.51 1311.52 56.495 1314.14 56.495C1317.22 56.495 1318.45 58.035 1318.45 60.17V60.87H1312.71C1307.81 60.87 1305.95 63.88 1305.95 66.715C1305.95 69.725 1308.23 72.455 1312.29 72.455C1314.81 72.455 1316.7 71.51 1317.78 70.145H1318.55V72ZM1313.02 69.865C1310.4 69.865 1308.93 68.605 1308.93 66.61C1308.93 64.51 1310.26 63.25 1313.16 63.25H1318.45V64.86C1318.45 67.66 1315.96 69.865 1313.02 69.865Z" fill="#274867"/>
<path d="M1379.87 46.555V72H1382.85V46.555H1379.87ZM1391.74 49.775V46.555H1388.59V49.775H1391.74ZM1391.63 54.36H1388.66V72H1391.63V54.36ZM1413.15 72V60.8C1413.15 56.565 1410.77 53.905 1406.43 53.905C1404.05 53.905 1402.09 54.885 1401.11 56.25H1400.34V54.36H1397.47V72H1400.45V62.445C1400.45 59.33 1402.55 56.565 1405.7 56.565C1408.67 56.565 1410.18 58.175 1410.18 61.43V72H1413.15ZM1434.63 72L1428.36 59.785L1433.44 54.36H1429.9L1421.57 63.215V46.555H1418.6V72H1421.57V66.89L1425.63 62.41H1426.4L1431.44 72H1434.63Z" fill="#274867"/>
<path d="M560.271 144.016V119.442H553.671L537.092 142.835V148.201H555.657V157H560.271V148.201H565.422V144.016H560.271ZM542.029 144.016V142.835L554.53 124.754H555.71V144.016H542.029ZM584.861 131.729C581.373 131.729 579.334 132.802 577.617 134.358H576.437L577.295 123.52H594.947V119.442H573.486L571.823 139.241H576.544C578.154 136.88 580.622 135.7 584.002 135.7C589.046 135.7 592.211 139.348 592.211 144.499C592.211 150.079 588.831 153.513 583.841 153.513C579.281 153.513 576.222 151.152 575.632 146.484H570.964C571.394 152.815 575.793 157.697 584.056 157.697C591.675 157.697 596.933 152.439 596.933 144.284C596.933 137.309 592.372 131.729 584.861 131.729Z" fill="#274867"/>
<path d="M1027.24 119.442V123.52H1043.66V124.701L1034.48 132.641V137.631C1035.34 137.416 1036.41 137.309 1037.75 137.309C1043.28 137.309 1046.23 140.367 1046.23 145.304C1046.23 150.454 1042.85 153.513 1037.7 153.513C1033.19 153.513 1029.71 150.776 1029.28 146.484H1024.56C1024.99 152.869 1030.08 157.697 1037.7 157.697C1045.37 157.697 1050.95 153.083 1050.95 145.304C1050.95 138.06 1046.23 134.036 1039.79 133.875V132.749L1049.18 124.701V119.442H1027.24ZM1077.64 136.612C1079.57 135.753 1082.36 132.91 1082.36 128.725C1082.36 122.769 1077.21 118.691 1069.91 118.691C1062.61 118.691 1057.46 122.769 1057.46 128.725C1057.46 133.017 1060.2 135.753 1062.19 136.612V137.792C1059.66 138.65 1056.34 141.816 1056.34 146.752C1056.34 152.976 1061.65 157.697 1069.91 157.697C1078.17 157.697 1083.49 152.976 1083.49 146.752C1083.49 141.762 1080.11 138.65 1077.64 137.792V136.612ZM1069.91 122.769C1074.2 122.769 1077.74 124.915 1077.74 128.939C1077.74 132.963 1074.2 135.163 1069.91 135.163C1065.62 135.163 1062.08 132.963 1062.08 128.939C1062.08 124.915 1065.62 122.769 1069.91 122.769ZM1069.91 153.513C1064.38 153.513 1061 150.669 1061 146.323C1061 141.87 1064.38 139.241 1069.91 139.241C1075.44 139.241 1078.82 141.87 1078.82 146.323C1078.82 150.669 1075.44 153.513 1069.91 153.513Z" fill="#274867"/>
<path d="M1292.27 144.016V119.442H1285.67L1269.09 142.835V148.201H1287.66V157H1292.27V148.201H1297.42V144.016H1292.27ZM1274.03 144.016V142.835L1286.53 124.754H1287.71V144.016H1274.03ZM1325.12 144.016V119.442H1318.52L1301.94 142.835V148.201H1320.51V157H1325.12V148.201H1330.27V144.016H1325.12ZM1306.88 144.016V142.835L1319.38 124.754H1320.56V144.016H1306.88Z" fill="#274867"/>
<line x1="125" y1="90" x2="125" y2="185" stroke="#274867" stroke-width="4"/>
<path d="M237.451 331.107C237.451 343.769 226.165 355.854 206.451 364.886C186.906 373.84 159.77 379.43 129.692 379.43C99.6143 379.43 72.4778 373.84 52.9332 364.886C33.2194 355.854 21.9329 343.769 21.9329 331.107C21.9329 318.445 33.2194 306.36 52.9332 297.328C72.4778 288.374 99.6143 282.784 129.692 282.784C159.77 282.784 186.906 288.374 206.451 297.328C226.165 306.36 237.451 318.445 237.451 331.107Z" fill="white" stroke="#FF0000" stroke-width="3.8658"/>
<path d="M71.2572 315.921V311.754H45.8981V348.039H50.4718V331.878H67.2933V327.711H50.4718V315.921H71.2572ZM78.1072 311.754V348.039H82.681V332.844H93.2515C94.2171 332.844 95.2335 332.793 96.1991 332.691L101.637 348.039H106.363L100.57 331.624C104.229 329.998 106.109 326.796 106.109 322.324C106.109 315.667 101.84 311.754 94.1663 311.754H78.1072ZM82.681 328.778V315.819H93.5056C99.3499 315.819 101.484 318.259 101.484 322.324C101.484 326.339 99.3499 328.778 93.5056 328.778H82.681ZM129.231 311.093C118.152 311.093 112.308 319.478 112.308 329.896C112.308 340.314 118.152 348.7 129.231 348.7C140.259 348.7 146.154 340.314 146.154 329.896C146.154 319.478 140.259 311.093 129.231 311.093ZM129.231 344.532C120.592 344.532 116.933 337.469 116.933 329.896C116.933 322.324 120.592 315.26 129.231 315.26C137.871 315.26 141.53 322.324 141.53 329.896C141.53 337.469 137.871 344.532 129.231 344.532ZM178.799 311.754V342.093H177.681L160.809 311.754H153.593V348.039H158.065V317.7H159.183L176.055 348.039H183.272V311.754H178.799ZM217.251 311.754H188.792V315.819H200.785V348.039H205.359V315.819H217.251V311.754Z" fill="#FF0000"/>
<path d="M126.008 283.749L126.008 209.891" stroke="#FF0000" stroke-width="3.45458"/>
<path d="M125.401 225.153L140.162 225.153L125.414 190L110.867 225.153L125.401 225.153Z" fill="#FF0000"/>
<path d="M660.692 142.341C660.881 141.406 660.277 140.494 659.342 140.305C658.407 140.116 657.495 140.72 657.306 141.655L660.692 142.341ZM657.306 141.655C641.476 219.817 586.046 255.732 528.274 262.516C470.301 269.323 410.388 246.77 385.757 208.428L382.85 210.295C408.414 250.089 469.849 272.855 528.676 265.947C587.703 259.016 644.522 222.181 660.692 142.341L657.306 141.655Z" fill="#007BFF"/>
<path d="M393.486 221.57L404.922 212.238L371.27 194.327L382.225 230.759L393.486 221.57Z" fill="#007BFF"/>
<path d="M1145.69 142.341C1145.88 141.406 1145.28 140.494 1144.34 140.305C1143.41 140.116 1142.5 140.72 1142.31 141.655L1145.69 142.341ZM1142.31 141.655C1126.48 219.817 1071.05 255.732 1013.27 262.516C955.301 269.323 895.388 246.77 870.757 208.428L867.85 210.295C893.414 250.089 954.849 272.855 1013.68 265.947C1072.7 259.016 1129.52 222.181 1145.69 142.341L1142.31 141.655Z" fill="#007BFF"/>
<path d="M878.486 221.57L889.922 212.238L856.27 194.327L867.225 230.759L878.486 221.57Z" fill="#007BFF"/>
<path d="M1389.69 136.484C1389.88 137.418 1389.28 138.33 1388.34 138.519C1387.41 138.709 1386.5 138.104 1386.31 137.169L1389.69 136.484ZM1386.31 137.169C1370.48 59.0072 1315.05 23.0922 1257.27 16.3082C1199.3 9.50072 1139.39 32.0539 1114.76 70.3967L1111.85 68.5295C1137.41 28.7356 1198.85 5.96932 1257.68 12.8772C1316.7 19.8084 1373.52 56.6433 1389.69 136.484L1386.31 137.169Z" fill="#007BFF"/>
<path d="M1122.49 57.2541L1133.92 66.5863L1100.27 84.4976L1111.23 48.0651L1122.49 57.2541Z" fill="#007BFF"/>
<path d="M902.692 136.484C902.881 137.418 902.277 138.33 901.342 138.519C900.407 138.709 899.495 138.104 899.306 137.169L902.692 136.484ZM899.306 137.169C883.476 59.0072 828.046 23.0922 770.274 16.3082C712.301 9.50072 652.388 32.0539 627.757 70.3967L624.85 68.5295C650.414 28.7356 711.849 5.96932 770.676 12.8772C829.703 19.8084 886.522 56.6433 902.692 136.484L899.306 137.169Z" fill="#007BFF"/>
<path d="M635.486 57.2541L646.922 66.5863L613.27 84.4976L624.225 48.0651L635.486 57.2541Z" fill="#007BFF"/>
<path d="M414.692 136.484C414.881 137.418 414.277 138.33 413.342 138.519C412.407 138.709 411.495 138.104 411.306 137.169L414.692 136.484ZM411.306 137.169C395.476 59.0072 340.046 23.0922 282.274 16.3082C224.301 9.50072 164.388 32.0539 139.757 70.3967L136.85 68.5295C162.414 28.7356 223.849 5.96932 282.676 12.8772C341.703 19.8084 398.522 56.6433 414.692 136.484L411.306 137.169Z" fill="#007BFF"/>
<path d="M147.486 57.2541L158.922 66.5863L125.27 84.4976L136.225 48.0651L147.486 57.2541Z" fill="#007BFF"/>
<path d="M1457.45 331.107C1457.45 343.769 1446.16 355.854 1426.45 364.886C1406.91 373.84 1379.77 379.43 1349.69 379.43C1319.61 379.43 1292.48 373.84 1272.93 364.886C1253.22 355.854 1241.93 343.769 1241.93 331.107C1241.93 318.445 1253.22 306.36 1272.93 297.328C1292.48 288.374 1319.61 282.784 1349.69 282.784C1379.77 282.784 1406.91 288.374 1426.45 297.328C1446.16 306.36 1457.45 318.445 1457.45 331.107Z" fill="white" stroke="#FF0000" stroke-width="3.8658"/>
<path d="M1284.25 311.754V348.039H1288.82V332.844H1299.39C1300.36 332.844 1301.38 332.793 1302.34 332.691L1307.78 348.039H1312.51L1306.71 331.624C1310.37 329.998 1312.25 326.796 1312.25 322.324C1312.25 315.667 1307.98 311.754 1300.31 311.754H1284.25ZM1288.82 328.778V315.819H1299.65C1305.49 315.819 1307.63 318.259 1307.63 322.324C1307.63 326.339 1305.49 328.778 1299.65 328.778H1288.82ZM1324.85 343.872V331.319H1341.52V327.152H1324.85V315.921H1345.54V311.754H1320.28V348.039H1346.35V343.872H1324.85ZM1377.93 348.039H1382.7L1370.1 311.754H1362.38L1349.82 348.039H1354.5L1358.26 336.909H1374.17L1377.93 348.039ZM1365.17 316.429H1367.2L1372.74 332.742H1359.63L1365.17 316.429ZM1388.32 311.754V348.039H1392.9V332.844H1403.47C1404.43 332.844 1405.45 332.793 1406.41 332.691L1411.85 348.039H1416.58L1410.78 331.624C1414.44 329.998 1416.32 326.796 1416.32 322.324C1416.32 315.667 1412.05 311.754 1404.38 311.754H1388.32ZM1392.9 328.778V315.819H1403.72C1409.56 315.819 1411.7 318.259 1411.7 322.324C1411.7 326.339 1409.56 328.778 1403.72 328.778H1392.9Z" fill="#FF0000"/>
<path d="M1345.98 283.749L1345.98 209.891" stroke="#FF0000" stroke-width="3.45458"/>
<path d="M1345.37 225.153L1360.13 225.153L1345.38 190L1330.84 225.153L1345.37 225.153Z" fill="#FF0000"/>
</g>
<defs>
<clipPath id="clip0_2523_2246">
<rect width="1474" height="395" fill="white"/>
</clipPath>
</defs>
</svg>
