<svg width="1474" height="414" viewBox="0 0 1474 414" fill="none" xmlns="http://www.w3.org/2000/svg">
<g clip-path="url(#clip0_2523_2176)">
<rect width="1474" height="414" fill="white"/>
<rect x="242.937" y="12.355" width="1219.13" height="222.559" fill="white" stroke="#007BFF" stroke-width="2.51472"/>
<line x1="242.977" y1="121.727" x2="1463.32" y2="121.727" stroke="#007BFF" stroke-width="2.51472"/>
<line x1="410.07" y1="10.6758" x2="410.07" y2="237" stroke="#007BFF" stroke-width="2.51472"/>
<line x1="933.125" y1="10.6758" x2="933.125" y2="237" stroke="#007BFF" stroke-width="2.51472"/>
<line x1="584.851" y1="10.6758" x2="584.851" y2="237" stroke="#007BFF" stroke-width="2.51472"/>
<line x1="1107.92" y1="10.6758" x2="1107.92" y2="237" stroke="#007BFF" stroke-width="2.51472"/>
<line x1="759.632" y1="10.6758" x2="759.632" y2="237" stroke="#007BFF" stroke-width="2.51472"/>
<line x1="1282.67" y1="10.6758" x2="1282.67" y2="237" stroke="#007BFF" stroke-width="2.51472"/>
<path d="M273.627 85.3438H295.464V81.1588H287.255V47.7862H281.406L273.573 53.0979V58.0341L281.46 52.7223H282.533V81.1588H273.627V85.3438ZM300.663 85.3438H322.5V81.1588H314.291V47.7862H308.443L300.609 53.0979V58.0341L308.496 52.7223H309.569V81.1588H300.663V85.3438ZM349.805 72.3596V47.7862H343.205L326.626 71.1792V76.5446H345.19V85.3438H349.805V76.5446H354.955V72.3596H349.805ZM331.562 72.3596V71.1792L344.064 53.0979H345.244V72.3596H331.562ZM360.552 85.3438H382.389V81.1588H374.18V47.7862H368.331L360.498 53.0979V58.0341L368.385 52.7223H369.458V81.1588H360.552V85.3438Z" fill="#274867"/>
<path d="M296.168 160.946V165.024H312.586V166.204L303.412 174.145V179.135C304.27 178.92 305.343 178.813 306.684 178.813C312.211 178.813 315.162 181.871 315.162 186.807C315.162 191.958 311.782 195.016 306.631 195.016C302.124 195.016 298.636 192.28 298.207 187.988H293.486C293.915 194.373 299.012 199.201 306.631 199.201C314.303 199.201 319.883 194.587 319.883 186.807C319.883 179.564 315.162 175.54 308.723 175.379V174.252L318.113 166.204V160.946H296.168ZM336.802 185.359C341.309 185.359 344.314 183.266 345.601 181.71H346.782C346.513 189.919 343.08 195.016 337.07 195.016C333.422 195.016 331.383 193.407 330.471 190.241H325.803C326.662 195.392 330.686 199.201 337.07 199.201C346.889 199.201 351.342 190.08 351.342 178.652C351.342 165.131 345.548 160.195 337.553 160.195C329.559 160.195 324.784 165.99 324.784 173.126C324.784 180.262 329.934 185.359 336.802 185.359ZM337.607 164.38C342.168 164.38 345.87 167.492 345.87 172.965C345.87 178.33 342.221 181.227 337.714 181.227C333.154 181.227 329.505 178.491 329.505 172.911C329.505 167.331 333.046 164.38 337.607 164.38Z" fill="#274867"/>
<path d="M444.627 85.3438H466.464V81.1588H458.255V47.7862H452.406L444.573 53.0979V58.0341L452.46 52.7223H453.533V81.1588H444.627V85.3438ZM471.663 85.3438H493.5V81.1588H485.291V47.7862H479.443L471.609 53.0979V58.0341L479.496 52.7223H480.569V81.1588H471.663V85.3438ZM520.805 72.3596V47.7862H514.205L497.626 71.1792V76.5446H516.19V85.3438H520.805V76.5446H525.955V72.3596H520.805ZM502.562 72.3596V71.1792L515.064 53.0979H516.244V72.3596H502.562ZM535.951 58.1414C536.434 53.4198 539.385 51.22 543.624 51.22C548.184 51.22 551.189 53.7418 551.189 58.4633C551.189 62.9165 547.916 65.9748 545.341 68.2819C543.355 70.1061 539.814 73.1107 536.81 75.5251L531.283 80.032V85.3438H557.091V81.1588H538.151V79.9784L547.594 72.0377C552.047 68.3356 555.91 63.5604 555.91 58.4633C555.91 50.9518 550.76 47.0351 543.731 47.0351C537.078 47.0351 531.659 50.6299 531.23 58.1414H535.951Z" fill="#274867"/>
<path d="M962.65 85.3438H984.487V81.1588H976.278V47.7862H970.43L962.596 53.0979V58.0341L970.483 52.7223H971.556V81.1588H962.65V85.3438ZM989.686 85.3438H1011.52V81.1588H1003.31V47.7862H997.466L989.633 53.0979V58.0341L997.52 52.7223H998.593V81.1588H989.686V85.3438ZM1038.83 72.3596V47.7862H1032.23L1015.65 71.1792V76.5446H1034.21V85.3438H1038.83V76.5446H1043.98V72.3596H1038.83ZM1020.59 72.3596V71.1792L1033.09 53.0979H1034.27V72.3596H1020.59ZM1063.42 60.0729C1059.93 60.0729 1057.89 61.146 1056.17 62.7019H1054.99L1055.85 51.8639H1073.5V47.7862H1052.04L1050.38 67.5844H1055.1C1056.71 65.2236 1059.18 64.0433 1062.56 64.0433C1067.6 64.0433 1070.77 67.6917 1070.77 72.8425C1070.77 78.4224 1067.39 81.8563 1062.4 81.8563C1057.84 81.8563 1054.78 79.4955 1054.19 74.8276H1049.52C1049.95 81.1588 1054.35 86.0412 1062.61 86.0412C1070.23 86.0412 1075.49 80.7832 1075.49 72.6278C1075.49 65.6529 1070.93 60.0729 1063.42 60.0729Z" fill="#274867"/>
<path d="M491.927 185.52V160.946H485.328L468.749 184.339V189.705H487.313V198.504H491.927V189.705H497.078V185.52H491.927ZM473.685 185.52V184.339L486.186 166.258H487.367V185.52H473.685ZM502.674 198.504H524.511V194.319H516.302V160.946H510.454L502.621 166.258V171.194L510.508 165.883H511.581V194.319H502.674V198.504Z" fill="#274867"/>
<path d="M991.536 160.946V165.024H1007.95V166.204L998.779 174.145V179.135C999.637 178.92 1000.71 178.813 1002.05 178.813C1007.58 178.813 1010.53 181.871 1010.53 186.807C1010.53 191.958 1007.15 195.016 1002 195.016C997.491 195.016 994.004 192.28 993.574 187.988H988.853C989.282 194.373 994.379 199.201 1002 199.201C1009.67 199.201 1015.25 194.587 1015.25 186.807C1015.25 179.564 1010.53 175.54 1004.09 175.379V174.252L1013.48 166.204V160.946H991.536ZM1041.93 178.116C1043.87 177.257 1046.66 174.413 1046.66 170.228C1046.66 164.273 1041.51 160.195 1034.21 160.195C1026.91 160.195 1021.76 164.273 1021.76 170.228C1021.76 174.521 1024.5 177.257 1026.48 178.116V179.296C1023.96 180.154 1020.63 183.32 1020.63 188.256C1020.63 194.48 1025.95 199.201 1034.21 199.201C1042.47 199.201 1047.78 194.48 1047.78 188.256C1047.78 183.266 1044.4 180.154 1041.93 179.296V178.116ZM1034.21 164.273C1038.5 164.273 1042.04 166.419 1042.04 170.443C1042.04 174.467 1038.5 176.667 1034.21 176.667C1029.92 176.667 1026.37 174.467 1026.37 170.443C1026.37 166.419 1029.92 164.273 1034.21 164.273ZM1034.21 195.016C1028.68 195.016 1025.3 192.173 1025.3 187.827C1025.3 183.374 1028.68 180.745 1034.21 180.745C1039.73 180.745 1043.11 183.374 1043.11 187.827C1043.11 192.173 1039.73 195.016 1034.21 195.016Z" fill="#274867"/>
<path d="M620.65 85.3438H642.487V81.1588H634.278V47.7862H628.43L620.596 53.0979V58.0341L628.483 52.7223H629.556V81.1588H620.65V85.3438ZM647.686 85.3438H669.523V81.1588H661.314V47.7862H655.466L647.633 53.0979V58.0341L655.52 52.7223H656.593V81.1588H647.686V85.3438ZM696.828 72.3596V47.7862H690.229L673.65 71.1792V76.5446H692.214V85.3438H696.828V76.5446H701.979V72.3596H696.828ZM678.586 72.3596V71.1792L691.087 53.0979H692.267V72.3596H678.586ZM708.648 47.7862V51.8639H725.066V53.0443L715.891 60.985V65.9748C716.75 65.7602 717.823 65.6529 719.164 65.6529C724.691 65.6529 727.642 68.7111 727.642 73.6473C727.642 78.798 724.261 81.8563 719.111 81.8563C714.604 81.8563 711.116 79.1199 710.687 74.8276H705.965C706.395 81.2124 711.492 86.0412 719.111 86.0412C726.783 86.0412 732.363 81.427 732.363 73.6473C732.363 66.404 727.642 62.38 721.203 62.219V61.0923L730.592 53.0443V47.7862H708.648Z" fill="#274867"/>
<path d="M1138.7 85.3438H1160.53V81.1588H1152.32V47.7862H1146.48L1138.64 53.0979V58.0341L1146.53 52.7223H1147.6V81.1588H1138.7V85.3438ZM1165.73 85.3438H1187.57V81.1588H1179.36V47.7862H1173.51L1165.68 53.0979V58.0341L1173.57 52.7223H1174.64V81.1588H1165.73V85.3438ZM1214.87 72.3596V47.7862H1208.28L1191.7 71.1792V76.5446H1210.26V85.3438H1214.87V76.5446H1220.03V72.3596H1214.87ZM1196.63 72.3596V71.1792L1209.13 53.0979H1210.31V72.3596H1196.63ZM1239.95 60.8777C1235.44 60.8777 1232.44 62.9702 1231.15 64.5261H1229.97C1230.24 56.3171 1233.67 51.22 1239.68 51.22C1243.33 51.22 1245.37 52.8297 1246.28 55.9952H1250.95C1250.09 50.8445 1246.06 47.0351 1239.68 47.0351C1229.86 47.0351 1225.41 56.1562 1225.41 67.5844C1225.41 81.1051 1231.2 86.0412 1239.2 86.0412C1247.19 86.0412 1251.97 80.2467 1251.97 73.1107C1251.97 65.9748 1246.82 60.8777 1239.95 60.8777ZM1239.14 81.8563C1234.58 81.8563 1230.88 78.7444 1230.88 73.2717C1230.88 67.9063 1234.53 65.009 1239.04 65.009C1243.6 65.009 1247.24 67.7454 1247.24 73.3253C1247.24 78.9053 1243.7 81.8563 1239.14 81.8563Z" fill="#274867"/>
<path d="M665.451 185.52V160.946H658.851L642.272 184.339V189.705H660.836V198.504H665.451V189.705H670.601V185.52H665.451ZM647.208 185.52V184.339L659.71 166.258H660.89V185.52H647.208ZM698.303 185.52V160.946H691.704L675.125 184.339V189.705H693.689V198.504H698.303V189.705H703.454V185.52H698.303ZM680.061 185.52V184.339L692.562 166.258H693.742V185.52H680.061Z" fill="#274867"/>
<path d="M1183.47 185.52V160.946H1176.87L1160.3 184.339V189.705H1178.86V198.504H1183.47V189.705H1188.62V185.52H1183.47ZM1165.23 185.52V184.339L1177.73 166.258H1178.91V185.52H1165.23ZM1208.55 174.038C1204.04 174.038 1201.04 176.13 1199.75 177.686H1198.57C1198.84 169.477 1202.27 164.38 1208.28 164.38C1211.93 164.38 1213.97 165.99 1214.88 169.155H1219.55C1218.69 164.005 1214.66 160.195 1208.28 160.195C1198.46 160.195 1194.01 169.316 1194.01 180.745C1194.01 194.265 1199.8 199.201 1207.8 199.201C1215.79 199.201 1220.56 193.407 1220.56 186.271C1220.56 179.135 1215.41 174.038 1208.55 174.038ZM1207.74 195.016C1203.18 195.016 1199.48 191.905 1199.48 186.432C1199.48 181.066 1203.13 178.169 1207.63 178.169C1212.2 178.169 1215.84 180.906 1215.84 186.485C1215.84 192.065 1212.3 195.016 1207.74 195.016Z" fill="#274867"/>
<path d="M794.158 85.3438H815.995V81.1588H807.786V47.7862H801.938L794.104 53.0979V58.0341L801.991 52.7223H803.064V81.1588H794.158V85.3438ZM821.194 85.3438H843.031V81.1588H834.822V47.7862H828.974L821.14 53.0979V58.0341L829.028 52.7223H830.101V81.1588H821.194V85.3438ZM870.336 72.3596V47.7862H863.736L847.157 71.1792V76.5446H865.722V85.3438H870.336V76.5446H875.487V72.3596H870.336ZM852.094 72.3596V71.1792L864.595 53.0979H865.775V72.3596H852.094ZM903.188 72.3596V47.7862H896.589L880.01 71.1792V76.5446H898.574V85.3438H903.188V76.5446H908.339V72.3596H903.188ZM884.946 72.3596V71.1792L897.447 53.0979H898.628V72.3596H884.946Z" fill="#274867"/>
<path d="M1319.67 85.3438H1341.5V81.1588H1333.29V47.7862H1327.45L1319.61 53.0979V58.0341L1327.5 52.7223H1328.57V81.1588H1319.67V85.3438ZM1346.7 85.3438H1368.54V81.1588H1360.33V47.7862H1354.48L1346.65 53.0979V58.0341L1354.54 52.7223H1355.61V81.1588H1346.7V85.3438ZM1395.84 72.3596V47.7862H1389.24L1372.67 71.1792V76.5446H1391.23V85.3438H1395.84V76.5446H1400.99V72.3596H1395.84ZM1377.6 72.3596V71.1792L1390.1 53.0979H1391.28V72.3596H1377.6ZM1429.98 53.0443V47.7862H1406.05V51.8639H1425.1V53.0443L1408.79 85.3438H1413.73L1429.98 53.0443Z" fill="#274867"/>
<path d="M842.732 185.52V160.946H836.132L819.553 184.339V189.705H838.118V198.504H842.732V189.705H847.883V185.52H842.732ZM824.49 185.52V184.339L836.991 166.258H838.171V185.52H824.49ZM867.053 160.195C859.112 160.195 853.264 166.204 853.264 179.725C853.264 193.246 859.112 199.201 867.053 199.201C874.994 199.201 880.896 193.246 880.896 179.725C880.896 166.204 874.994 160.195 867.053 160.195ZM867.053 195.016C860.829 195.016 857.986 189.007 857.986 179.725C857.986 170.389 860.829 164.38 867.053 164.38C873.331 164.38 876.174 170.389 876.174 179.725C876.174 189.007 873.331 195.016 867.053 195.016Z" fill="#274867"/>
<path d="M1344.81 160.946V165.024H1361.23V166.204L1352.05 174.145V179.135C1352.91 178.92 1353.98 178.813 1355.33 178.813C1360.85 178.813 1363.8 181.871 1363.8 186.807C1363.8 191.958 1360.42 195.016 1355.27 195.016C1350.76 195.016 1347.28 192.28 1346.85 187.988H1342.13C1342.56 194.373 1347.65 199.201 1355.27 199.201C1362.94 199.201 1368.52 194.587 1368.52 186.807C1368.52 179.564 1363.8 175.54 1357.36 175.379V174.252L1366.75 166.204V160.946H1344.81ZM1388.13 173.233C1384.64 173.233 1382.6 174.306 1380.88 175.862H1379.7L1380.56 165.024H1398.21V160.946H1376.75L1375.09 180.745H1379.81C1381.42 178.384 1383.89 177.203 1387.27 177.203C1392.31 177.203 1395.48 180.852 1395.48 186.003C1395.48 191.583 1392.1 195.016 1387.11 195.016C1382.55 195.016 1379.49 192.656 1378.9 187.988H1374.23C1374.66 194.319 1379.06 199.201 1387.32 199.201C1394.94 199.201 1400.2 193.943 1400.2 185.788C1400.2 178.813 1395.64 173.233 1388.13 173.233Z" fill="#274867"/>
<path d="M23.2284 51.2737V46.3376H18.3996V51.2737H23.2284ZM23.0675 58.3023H18.5069V85.3438H23.0675V58.3023ZM56.0594 85.3438V68.1746C56.0594 61.6825 52.411 57.6048 45.7579 57.6048C42.1095 57.6048 39.1049 59.1071 37.6026 61.1996H36.4222V58.3023H32.0226V85.3438H36.5831V70.6963C36.5831 65.9211 39.8024 61.6825 44.6312 61.6825C49.1917 61.6825 51.4989 64.1506 51.4989 69.1404V85.3438H56.0594ZM84.0406 46.3376V61.1996H82.8602C81.3579 59.2681 78.8899 57.6048 74.5976 57.6048C67.1397 57.6048 62.7401 63.6677 62.7401 71.823C62.7401 79.8174 67.1397 86.0412 74.5976 86.0412C78.8899 86.0412 81.5189 84.3243 83.0212 82.4465H84.2016V85.3438H88.6012V46.3376H84.0406ZM75.617 82.0709C70.198 82.0709 67.3007 77.8322 67.3007 71.823C67.3007 65.8138 70.198 61.5752 75.617 61.5752C81.6262 61.5752 84.0943 66.5113 84.0943 71.823C84.0943 77.1347 81.6262 82.0709 75.617 82.0709ZM120.86 70.2134C120.699 63.5604 116.836 57.6048 108.788 57.6048C100.578 57.6048 95.7497 63.2385 95.7497 71.5548C95.7497 79.8711 100.471 86.0412 108.895 86.0412C115.602 86.0412 119.518 82.5001 120.377 77.8859H115.762C114.958 80.4613 112.704 82.0709 108.895 82.0709C103.315 82.0709 100.418 78.2078 100.257 71.7694H120.86V70.2134ZM108.68 61.5752C113.241 61.5752 115.87 64.5261 116.138 67.96H100.525C101.115 64.5261 103.798 61.5752 108.68 61.5752ZM145.255 85.3438H150.406L142.036 71.3402L149.708 58.3023H144.933L138.602 69.033H136.671L130.447 58.3023H125.618L133.183 71.5011L124.76 85.3438H129.749L136.617 74.0228H138.549L145.255 85.3438ZM179.491 70.2134C179.33 63.5604 175.467 57.6048 167.419 57.6048C159.21 57.6048 154.381 63.2385 154.381 71.5548C154.381 79.8711 159.102 86.0412 167.526 86.0412C174.233 86.0412 178.149 82.5001 179.008 77.8859H174.394C173.589 80.4613 171.335 82.0709 167.526 82.0709C161.946 82.0709 159.049 78.2078 158.888 71.7694H179.491V70.2134ZM167.311 61.5752C171.872 61.5752 174.501 64.5261 174.769 67.96H159.156C159.746 64.5261 162.429 61.5752 167.311 61.5752ZM194.103 68.4965C191.366 68.0673 190.025 67.2625 190.025 65.17C190.025 62.8629 192.386 61.5752 195.873 61.5752C199.253 61.5752 201.829 62.7556 202.204 65.3309H206.765C206.175 60.6094 202.473 57.6048 196.088 57.6048C188.791 57.6048 185.411 61.0923 185.411 65.5992C185.411 69.6769 188.04 71.7157 191.903 72.4132L197.966 73.4326C201.4 74.0228 202.902 75.3105 202.902 77.6713C202.902 80.6222 200.219 82.0709 196.141 82.0709C192.064 82.0709 189.381 80.5686 188.952 77.5103H184.338C184.928 82.6611 188.684 86.0412 196.356 86.0412C203.653 86.0412 207.462 82.0172 207.462 77.564C207.462 72.6278 204.458 70.2134 199.736 69.4086L196.678 68.9257L194.103 68.4965Z" fill="#274867"/>
<path d="M38.0368 159.498V174.36H36.8564C35.3541 172.428 32.8861 170.765 28.5938 170.765C21.1359 170.765 16.7363 176.828 16.7363 184.983C16.7363 192.978 21.1359 199.201 28.5938 199.201C32.8861 199.201 35.5151 197.484 37.0174 195.607H38.1978V198.504H42.5974V159.498H38.0368ZM29.6132 195.231C24.1942 195.231 21.2969 190.992 21.2969 184.983C21.2969 178.974 24.1942 174.735 29.6132 174.735C35.6224 174.735 38.0905 179.671 38.0905 184.983C38.0905 190.295 35.6224 195.231 29.6132 195.231ZM68.632 198.504H72.9243V180.101C72.9243 174.038 68.5783 170.765 61.7643 170.765C55.7014 170.765 51.4091 173.662 51.0336 178.652H55.5941C55.8087 176.291 57.8476 174.735 61.8716 174.735C66.5931 174.735 68.471 177.096 68.471 180.369V181.442H59.6718C52.1603 181.442 49.3167 186.056 49.3167 190.402C49.3167 195.016 52.8041 199.201 59.028 199.201C62.891 199.201 65.7883 197.753 67.4516 195.66H68.632V198.504ZM60.1547 195.231C56.1307 195.231 53.8772 193.3 53.8772 190.241C53.8772 187.022 55.9161 185.091 60.3693 185.091H68.471V187.559C68.471 191.851 64.6616 195.231 60.1547 195.231ZM87.5524 171.462V163.307H82.9918V171.462H78.324V175.433H82.9918V190.939C82.9918 196.68 86.4257 198.504 92.2739 198.504H94.3664V194.426H92.3812C88.7328 194.426 87.5524 193.031 87.5524 190.295V175.433H94.3664V171.462H87.5524ZM119.089 198.504H123.382V180.101C123.382 174.038 119.036 170.765 112.222 170.765C106.159 170.765 101.867 173.662 101.491 178.652H106.052C106.266 176.291 108.305 174.735 112.329 174.735C117.051 174.735 118.928 177.096 118.928 180.369V181.442H110.129C102.618 181.442 99.7741 186.056 99.7741 190.402C99.7741 195.016 103.262 199.201 109.485 199.201C113.348 199.201 116.246 197.753 117.909 195.66H119.089V198.504ZM110.612 195.231C106.588 195.231 104.335 193.3 104.335 190.241C104.335 187.022 106.374 185.091 110.827 185.091H118.928V187.559C118.928 191.851 115.119 195.231 110.612 195.231Z" fill="#274867"/>
<path d="M272.984 279.882V275.715H247.625V312H252.198V295.839H269.02V291.672H252.198V279.882H272.984ZM279.834 275.715V312H284.408V296.805H294.978C295.944 296.805 296.96 296.754 297.926 296.652L303.363 312H308.09L302.296 295.585C305.955 293.959 307.836 290.757 307.836 286.285C307.836 279.628 303.567 275.715 295.893 275.715H279.834ZM284.408 292.739V279.78H295.232C301.076 279.78 303.211 282.22 303.211 286.285C303.211 290.3 301.076 292.739 295.232 292.739H284.408ZM330.958 275.054C319.879 275.054 314.035 283.439 314.035 293.857C314.035 304.275 319.879 312.661 330.958 312.661C341.986 312.661 347.881 304.275 347.881 293.857C347.881 283.439 341.986 275.054 330.958 275.054ZM330.958 308.493C322.318 308.493 318.659 301.429 318.659 293.857C318.659 286.285 322.318 279.221 330.958 279.221C339.597 279.221 343.256 286.285 343.256 293.857C343.256 301.429 339.597 308.493 330.958 308.493ZM380.526 275.715V306.054H379.408L362.536 275.715H355.319V312H359.791V281.66H360.909L377.782 312H384.998V275.715H380.526ZM418.978 275.715H390.518V279.78H402.512V312H407.086V279.78H418.978V275.715ZM450.063 300.769H424.348V304.479H450.063V300.769ZM450.063 290.656H424.348V294.365H450.063V290.656ZM457.467 312H478.151V308.036H470.375V276.426H464.836L457.416 281.457V286.133L464.887 281.101H465.903V308.036H457.467V312ZM483.075 312H503.759V308.036H495.984V276.426H490.444L483.025 281.457V286.133L490.495 281.101H491.512V308.036H483.075V312ZM529.622 299.702V276.426H523.371L507.667 298.584V303.666H525.251V312H529.622V303.666H534.5V299.702H529.622ZM512.343 299.702V298.584L524.184 281.457H525.302V299.702H512.343ZM539.801 312H560.485V308.036H552.709V276.426H547.17L539.75 281.457V286.133L547.221 281.101H548.237V308.036H539.801V312Z" fill="#FF0000"/>
<path d="M247.625 355.715V392H252.198V376.805H262.769C263.735 376.805 264.751 376.754 265.717 376.652L271.154 392H275.881L270.087 375.585C273.746 373.959 275.626 370.757 275.626 366.285C275.626 359.628 271.358 355.715 263.684 355.715H247.625ZM252.198 372.739V359.78H263.023C268.867 359.78 271.002 362.22 271.002 366.285C271.002 370.3 268.867 372.739 263.023 372.739H252.198ZM288.229 387.833V375.28H304.898V371.113H288.229V359.882H308.913V355.715H283.655V392H309.726V387.833H288.229ZM341.302 392H346.08L333.476 355.715H325.752L313.199 392H317.874L321.635 380.87H337.542L341.302 392ZM328.547 360.39H330.579L336.119 376.703H323.007L328.547 360.39ZM351.696 355.715V392H356.27V376.805H366.841C367.806 376.805 368.823 376.754 369.788 376.652L375.226 392H379.952L374.159 375.585C377.818 373.959 379.698 370.757 379.698 366.285C379.698 359.628 375.429 355.715 367.755 355.715H351.696ZM356.27 372.739V359.78H367.095C372.939 359.78 375.073 362.22 375.073 366.285C375.073 370.3 372.939 372.739 367.095 372.739H356.27ZM413.238 380.769H387.524V384.479H413.238V380.769ZM413.238 370.656H387.524V374.365H413.238V370.656ZM420.642 392H441.326V388.036H433.551V356.426H428.011L420.591 361.457V366.133L428.062 361.101H429.078V388.036H420.642V392ZM446.251 392H466.935V388.036H459.159V356.426H453.62L446.2 361.457V366.133L453.671 361.101H454.687V388.036H446.251V392ZM492.797 379.702V356.426H486.546L470.843 378.584V383.666H488.427V392H492.797V383.666H497.676V379.702H492.797ZM475.518 379.702V378.584L487.359 361.457H488.477V379.702H475.518ZM525.134 361.406V356.426H502.468V360.288H520.509V361.406L505.06 392H509.736L525.134 361.406Z" fill="#FF0000"/>
</g>
<defs>
<clipPath id="clip0_2523_2176">
<rect width="1474" height="414" fill="white"/>
</clipPath>
</defs>
</svg>
