<?xml version="1.0" encoding="utf-8"?>
<!-- Generator: Adobe Illustrator 20.1.0, SVG Export Plug-In . SVG Version: 6.00 Build 0)  -->
<svg version="1.1" id="Layer_1" xmlns="http://www.w3.org/2000/svg" xmlns:xlink="http://www.w3.org/1999/xlink" x="0px" y="0px"
	 viewBox="0 0 1600 1500.9" style="enable-background:new 0 0 1600 1500.9;" xml:space="preserve">
<style type="text/css">
	.st0{fill:none;stroke:#007BFF;stroke-width:2;stroke-miterlimit:10;}
	.st1{fill:#082E51;}
	.st2{fill:none;stroke:#007BFF;stroke-width:4;stroke-linecap:round;stroke-linejoin:round;stroke-miterlimit:10;}
	.st3{fill:#007BFF;}
</style>
<rect x="563.6" y="321" class="st0" width="735.1" height="1104.1"/>
<line class="st0" x1="563.6" y1="540.4" x2="1298.7" y2="540.4"/>
<line class="st0" x1="563.6" y1="762.4" x2="1298.7" y2="762.4"/>
<line class="st0" x1="563.6" y1="984.4" x2="1298.7" y2="984.4"/>
<line class="st0" x1="563.6" y1="1206.4" x2="1298.7" y2="1206.4"/>
<g>
	<path class="st1" d="M323.9,88.3v5h2c2.6-3.2,7.1-6.2,14.5-6.2c12.9,0,20.5,10.7,20.5,24.6c0,14.1-7.6,24.6-20.5,24.6
		c-7.4,0-11.8-2.9-14.3-6.2h-2v23.5h-7.9V88.3H323.9z M324,111.6c0,9.2,4.3,17.7,14.6,17.7c9.4,0,14.4-7.3,14.4-17.7
		S348,94,338.7,94C328.3,94,324,102.5,324,111.6z"/>
	<path class="st1" d="M380.4,88.3v28c0,8.6,4,12.9,11.9,12.9c8.2,0,13.9-7.1,13.9-15.6V88.3h7.9V135h-7.6v-5h-2
		c-2.6,3.6-7.8,6.2-14.1,6.2c-11.5,0-17.8-7-17.8-18.3V88.3H380.4z"/>
	<path class="st1" d="M446.6,106.6l5.3,0.8c8.2,1.4,13.3,5.6,13.3,14.1c0,7.7-6.6,14.6-19.2,14.6c-13.2,0-19.7-5.8-20.8-14.7h8
		c0.7,5.3,5.4,7.9,12.4,7.9s11.7-2.5,11.7-7.6c0-4.1-2.6-6.3-8.5-7.3l-10.5-1.8c-6.7-1.2-11.2-4.7-11.2-11.8
		c0-7.8,5.8-13.8,18.4-13.8c11,0,17.4,5.2,18.4,13.3H456c-0.6-4.4-5.1-6.5-10.9-6.5c-6,0-10.1,2.2-10.1,6.2c0,3.6,2.3,5,7,5.7
		L446.6,106.6z"/>
	<path class="st1" d="M510.5,135v-28c0-8.4-4-12.9-11.9-12.9c-8.3,0-13.9,7.3-13.9,15.6V135h-7.9V67.6h7.9v25.7h2
		c2.5-3.6,7.6-6.2,13.9-6.2c11.4,0,17.7,7,17.7,18.3V135H510.5z"/>
</g>
<g>
	<path class="st1" d="M913.3,1339.9h15.4v-49.1h-1.9l-13.6,9.2v-8.5l13.5-9.2h10.1v57.6H951v7.2h-37.7V1339.9z"/>
</g>
<g>
	<path class="st1" d="M909.1,1082.5c0.7-13,10.1-19.2,21.6-19.2c12.1,0,21,6.8,21,19.7c0,8.8-6.7,17-14.4,23.4l-16.3,13.7v2h32.7
		v7.2h-44.6v-9.2l9.5-7.8c5.2-4.2,11.3-9.4,14.7-12.5c4.4-4,10.1-9.3,10.1-17c0-8.2-5.2-12.5-13.1-12.5c-7.3,0-12.4,3.8-13.2,12h-8
		V1082.5z"/>
</g>
<g>
	<path class="st1" d="M950,841.7v9.1l-16.2,13.9v1.9c11.1,0.3,19.3,7.2,19.3,19.7c0,13.4-9.6,21.4-22.9,21.4
		c-13.2,0-22-8.3-22.7-19.4h8.2c0.7,7.4,6.8,12.1,14.5,12.1c8.9,0,14.7-5.3,14.7-14.2c0-8.5-5.1-13.8-14.6-13.8
		c-2.3,0-4.2,0.2-5.7,0.6v-8.6l15.8-13.7v-2H912v-7H950z"/>
</g>
<g>
	<path class="st1" d="M955.3,665v7.2h-8.9v15.2h-8v-15.2h-32.1v-9.3l28.6-40.4h11.4V665H955.3z M938.5,665v-33.3h-2l-21.6,31.2v2
		L938.5,665L938.5,665z"/>
</g>
<g>
	<path class="st1" d="M953.8,444.8c0,14.1-9.1,23.2-22.2,23.2c-14.3,0-21.9-8.4-22.6-19.4h8.1c1,8.1,6.3,12.1,14.2,12.1
		c8.6,0,14.5-5.9,14.5-15.6c0-8.9-5.5-15.2-14.2-15.2c-5.8,0-10.1,2-12.9,6.1h-8.2l2.9-34.2h37.1v7H920l-1.5,18.7h2
		c3-2.7,6.5-4.5,12.5-4.5C945.9,423.1,953.8,432.8,953.8,444.8z"/>
</g>
<g>
	<path class="st1" d="M1371,88.3v5h2c2.6-3.2,7.1-6.2,14.5-6.2c12.9,0,20.5,10.7,20.5,24.6c0,14.1-7.6,24.6-20.5,24.6
		c-7.4,0-11.8-2.9-14.3-6.2h-2v23.5h-7.9V88.3H1371z M1371.1,111.6c0,9.2,4.3,17.7,14.6,17.7c9.4,0,14.4-7.3,14.4-17.7
		s-5-17.7-14.4-17.7C1375.4,94,1371.1,102.5,1371.1,111.6z"/>
	<path class="st1" d="M1463.4,111.6c0,13.8-8.4,24.6-23,24.6s-23-10.7-23-24.6s8.3-24.6,23-24.6C1455,87.1,1463.4,97.8,1463.4,111.6
		z M1455.6,111.6c0-9.2-4.8-17.7-15.1-17.7c-10.4,0-15.1,8.5-15.1,17.7s4.7,17.7,15.1,17.7C1450.7,129.3,1455.6,120.8,1455.6,111.6z
		"/>
	<path class="st1" d="M1483.4,88.3v5h2c2.6-3.2,7.1-6.2,14.5-6.2c12.9,0,20.5,10.7,20.5,24.6c0,14.1-7.6,24.6-20.5,24.6
		c-7.4,0-11.8-2.9-14.3-6.2h-2v23.5h-7.9V88.3H1483.4z M1483.5,111.6c0,9.2,4.3,17.7,14.6,17.7c9.4,0,14.4-7.3,14.4-17.7
		s-5-17.7-14.4-17.7C1487.8,94,1483.5,102.5,1483.5,111.6z"/>
</g>
<g>
	<path class="st1" d="M99.2,414.1v6.9H87.4v25.7c0,4.7,2,7.1,8.3,7.1h3.4v7h-3.6c-10.1,0-16-3.1-16-13.1v-26.8h-8.1V414h8.1v-14h7.9
		v14.1H99.2z"/>
	<path class="st1" d="M154.5,437.4c0,13.8-8.4,24.6-23,24.6s-23-10.7-23-24.6s8.3-24.6,23-24.6C146.1,412.8,154.5,423.6,154.5,437.4
		z M146.6,437.4c0-9.2-4.8-17.7-15.1-17.7c-10.4,0-15.1,8.5-15.1,17.7s4.7,17.7,15.1,17.7C141.8,455.1,146.6,446.6,146.6,437.4z"/>
	<path class="st1" d="M174.4,414.1v5h2c2.6-3.2,7.1-6.2,14.5-6.2c12.9,0,20.5,10.7,20.5,24.6c0,14.1-7.6,24.6-20.5,24.6
		c-7.4,0-11.8-2.9-14.3-6.2h-2v23.5h-7.9v-65.2h7.7V414.1z M174.6,437.4c0,9.2,4.3,17.7,14.6,17.7c9.4,0,14.4-7.3,14.4-17.7
		s-5-17.7-14.4-17.7C178.9,419.7,174.6,428.2,174.6,437.4z"/>
</g>
<path pointer-events="none" class="st2" d="M268.7,443.9l236.6-0.5"/>
<path pointer-events="none" class="st3" d="M542.6,443.3l-49.6,25l12.4-24.8l-12.5-24.8L542.6,443.3z"/>
<g>
	<path pointer-events="none" class="st2" d="M1153.7,305.7c24.1-93.1,69.4-156.4,135.7-189.9"/>
	<path pointer-events="none" class="st3" d="M1322.7,98.9l-33.1,44.5l-0.1-27.7l-22.3-16.6L1322.7,98.9z"/>
</g>
<g>
	<path pointer-events="none" class="st2" d="M550.4,103c95.9,47.1,152.3,102.7,169.4,166.7"/>
	<path pointer-events="none" class="st3" d="M729.4,305.7l-36.7-41.6l27.2,5.6l20.9-18.4L729.4,305.7z"/>
</g>
</svg>
