<svg width="1474" height="560" viewBox="0 0 1474 560" fill="none" xmlns="http://www.w3.org/2000/svg">
<g clip-path="url(#clip0)">
<rect width="1474" height="560" fill="white"/>
<path d="M674.757 57.76V52.02H639.827V102H646.127V79.74H669.297V74H646.127V57.76H674.757ZM689.862 57.55V51.11H683.562V57.55H689.862ZM689.652 66.72H683.702V102H689.652V66.72ZM719.606 65.81C714.006 65.81 710.716 67.98 708.826 70.5H707.286V51.11H701.336V102H707.076V98.22H708.616C710.576 100.67 714.006 102.91 719.606 102.91C729.336 102.91 735.076 94.79 735.076 84.36C735.076 73.72 729.336 65.81 719.606 65.81ZM718.276 97.73C710.436 97.73 707.216 91.29 707.216 84.36C707.216 77.43 710.436 70.99 718.276 70.99C725.346 70.99 729.126 76.52 729.126 84.36C729.126 92.2 725.346 97.73 718.276 97.73ZM767.105 80.16C767.105 66.3 772.285 56.5 777.885 48.87H772.145C766.405 56.15 761.505 66.37 761.505 80.16C761.505 94.09 766.545 104.66 772.635 111.87H778.375C772.635 104.24 767.105 94.23 767.105 80.16ZM815.821 102V79.6C815.821 71.13 811.061 65.81 802.381 65.81C797.621 65.81 793.701 67.77 791.741 70.5H790.201V66.72H784.461V102H790.411V82.89C790.411 76.66 794.611 71.13 800.911 71.13C806.861 71.13 809.871 74.35 809.871 80.86V102H815.821ZM832.587 80.16C832.587 94.23 827.057 104.24 821.317 111.87H827.057C833.147 104.66 838.187 94.09 838.187 80.16C838.187 66.37 833.287 56.15 827.547 48.87H821.807C827.407 56.5 832.587 66.3 832.587 80.16Z" fill="#274867"/>
<path d="M275.632 261.76V256.02H240.702V306H247.002V283.74H270.172V278H247.002V261.76H275.632ZM290.737 261.55V255.11H284.437V261.55H290.737ZM290.527 270.72H284.577V306H290.527V270.72ZM320.481 269.81C314.881 269.81 311.591 271.98 309.701 274.5H308.161V255.11H302.211V306H307.951V302.22H309.491C311.451 304.67 314.881 306.91 320.481 306.91C330.211 306.91 335.951 298.79 335.951 288.36C335.951 277.72 330.211 269.81 320.481 269.81ZM319.151 301.73C311.311 301.73 308.091 295.29 308.091 288.36C308.091 281.43 311.311 274.99 319.151 274.99C326.221 274.99 330.001 280.52 330.001 288.36C330.001 296.2 326.221 301.73 319.151 301.73ZM367.98 284.16C367.98 270.3 373.16 260.5 378.76 252.87H373.02C367.28 260.15 362.38 270.37 362.38 284.16C362.38 298.09 367.42 308.66 373.51 315.87H379.25C373.51 308.24 367.98 298.23 367.98 284.16ZM416.696 306V283.6C416.696 275.13 411.936 269.81 403.256 269.81C398.496 269.81 394.576 271.77 392.616 274.5H391.076V270.72H385.336V306H391.286V286.89C391.286 280.66 395.486 275.13 401.786 275.13C407.736 275.13 410.746 278.35 410.746 284.86V306H416.696ZM444.382 289.2V283.95H425.272V289.2H444.382ZM451.948 306H480.438V300.54H469.728V257H462.098L451.878 263.93V270.37L462.168 263.44H463.568V300.54H451.948V306ZM494.712 284.16C494.712 298.23 489.182 308.24 483.442 315.87H489.182C495.272 308.66 500.312 298.09 500.312 284.16C500.312 270.37 495.412 260.15 489.672 252.87H483.932C489.532 260.5 494.712 270.3 494.712 284.16Z" fill="#274867"/>
<path d="M734.423 283.53H719.233V288.64H734.423V303.83H739.533V288.64H754.793V283.53H739.533V268.34H734.423V283.53Z" fill="#274867"/>
<path d="M92.5998 439.76V434.02H57.6698V484H63.9698V461.74H87.1398V456H63.9698V439.76H92.5998ZM107.705 439.55V433.11H101.405V439.55H107.705ZM107.495 448.72H101.545V484H107.495V448.72ZM137.448 447.81C131.848 447.81 128.558 449.98 126.668 452.5H125.128V433.11H119.178V484H124.918V480.22H126.458C128.418 482.67 131.848 484.91 137.448 484.91C147.178 484.91 152.918 476.79 152.918 466.36C152.918 455.72 147.178 447.81 137.448 447.81ZM136.118 479.73C128.278 479.73 125.058 473.29 125.058 466.36C125.058 459.43 128.278 452.99 136.118 452.99C143.188 452.99 146.968 458.52 146.968 466.36C146.968 474.2 143.188 479.73 136.118 479.73ZM184.947 462.16C184.947 448.3 190.127 438.5 195.727 430.87H189.987C184.247 438.15 179.347 448.37 179.347 462.16C179.347 476.09 184.387 486.66 190.477 493.87H196.217C190.477 486.24 184.947 476.23 184.947 462.16ZM233.663 484V461.6C233.663 453.13 228.903 447.81 220.223 447.81C215.463 447.81 211.543 449.77 209.583 452.5H208.043V448.72H202.303V484H208.253V464.89C208.253 458.66 212.453 453.13 218.753 453.13C224.703 453.13 227.713 456.35 227.713 462.86V484H233.663ZM261.35 467.2V461.95H242.24V467.2H261.35ZM274.656 448.51C275.286 442.35 279.136 439.48 284.666 439.48C290.616 439.48 294.536 442.77 294.536 448.93C294.536 454.74 290.266 458.73 286.906 461.74C284.316 464.12 279.696 468.04 275.776 471.19L268.566 477.07V484H302.236V478.54H277.526V477L289.846 466.64C295.656 461.81 300.696 455.58 300.696 448.93C300.696 439.13 293.976 434.02 284.806 434.02C276.126 434.02 269.056 438.71 268.496 448.51H274.656ZM317.148 462.16C317.148 476.23 311.618 486.24 305.878 493.87H311.618C317.708 486.66 322.748 476.09 322.748 462.16C322.748 448.37 317.848 438.15 312.108 430.87H306.368C311.968 438.5 317.148 448.3 317.148 462.16ZM366.867 461.53H351.677V466.64H366.867V481.83H371.977V466.64H387.237V461.53H371.977V446.34H366.867V461.53ZM454.084 439.76V434.02H419.154V484H425.454V461.74H448.624V456H425.454V439.76H454.084ZM469.189 439.55V433.11H462.889V439.55H469.189ZM468.979 448.72H463.029V484H468.979V448.72ZM498.933 447.81C493.333 447.81 490.043 449.98 488.153 452.5H486.613V433.11H480.663V484H486.403V480.22H487.943C489.903 482.67 493.333 484.91 498.933 484.91C508.663 484.91 514.403 476.79 514.403 466.36C514.403 455.72 508.663 447.81 498.933 447.81ZM497.603 479.73C489.763 479.73 486.543 473.29 486.543 466.36C486.543 459.43 489.763 452.99 497.603 452.99C504.673 452.99 508.453 458.52 508.453 466.36C508.453 474.2 504.673 479.73 497.603 479.73ZM546.432 462.16C546.432 448.3 551.612 438.5 557.212 430.87H551.472C545.732 438.15 540.832 448.37 540.832 462.16C540.832 476.09 545.872 486.66 551.962 493.87H557.702C551.962 486.24 546.432 476.23 546.432 462.16ZM595.148 484V461.6C595.148 453.13 590.388 447.81 581.708 447.81C576.948 447.81 573.028 449.77 571.068 452.5H569.528V448.72H563.788V484H569.738V464.89C569.738 458.66 573.938 453.13 580.238 453.13C586.188 453.13 589.198 456.35 589.198 462.86V484H595.148ZM622.834 467.2V461.95H603.724V467.2H622.834ZM631.801 435V440.32H653.221V441.86L641.251 452.22V458.73C642.371 458.45 643.771 458.31 645.521 458.31C652.731 458.31 656.581 462.3 656.581 468.74C656.581 475.46 652.171 479.45 645.451 479.45C639.571 479.45 635.021 475.88 634.461 470.28H628.301C628.861 478.61 635.511 484.91 645.451 484.91C655.461 484.91 662.741 478.89 662.741 468.74C662.741 459.29 656.581 454.04 648.181 453.83V452.36L660.431 441.86V435H631.801ZM677.744 462.16C677.744 476.23 672.214 486.24 666.474 493.87H672.214C678.304 486.66 683.344 476.09 683.344 462.16C683.344 448.37 678.444 438.15 672.704 430.87H666.964C672.564 438.5 677.744 448.3 677.744 462.16Z" fill="#274867"/>
<path d="M829.54 435.76V430.02H794.61V480H800.91V457.74H824.08V452H800.91V435.76H829.54ZM844.645 435.55V429.11H838.345V435.55H844.645ZM844.435 444.72H838.485V480H844.435V444.72ZM874.389 443.81C868.789 443.81 865.499 445.98 863.609 448.5H862.069V429.11H856.119V480H861.859V476.22H863.399C865.359 478.67 868.789 480.91 874.389 480.91C884.119 480.91 889.859 472.79 889.859 462.36C889.859 451.72 884.119 443.81 874.389 443.81ZM873.059 475.73C865.219 475.73 861.999 469.29 861.999 462.36C861.999 455.43 865.219 448.99 873.059 448.99C880.129 448.99 883.909 454.52 883.909 462.36C883.909 470.2 880.129 475.73 873.059 475.73ZM921.888 458.16C921.888 444.3 927.068 434.5 932.668 426.87H926.928C921.188 434.15 916.288 444.37 916.288 458.16C916.288 472.09 921.328 482.66 927.418 489.87H933.158C927.418 482.24 921.888 472.23 921.888 458.16ZM970.604 480V457.6C970.604 449.13 965.844 443.81 957.164 443.81C952.404 443.81 948.484 445.77 946.524 448.5H944.984V444.72H939.244V480H945.194V460.89C945.194 454.66 949.394 449.13 955.694 449.13C961.644 449.13 964.654 452.35 964.654 458.86V480H970.604ZM998.29 463.2V457.95H979.18V463.2H998.29ZM1007.26 431V436.32H1028.68V437.86L1016.71 448.22V454.73C1017.83 454.45 1019.23 454.31 1020.98 454.31C1028.19 454.31 1032.04 458.3 1032.04 464.74C1032.04 471.46 1027.63 475.45 1020.91 475.45C1015.03 475.45 1010.48 471.88 1009.92 466.28H1003.76C1004.32 474.61 1010.97 480.91 1020.91 480.91C1030.92 480.91 1038.2 474.89 1038.2 464.74C1038.2 455.29 1032.04 450.04 1023.64 449.83V448.36L1035.89 437.86V431H1007.26ZM1053.2 458.16C1053.2 472.23 1047.67 482.24 1041.93 489.87H1047.67C1053.76 482.66 1058.8 472.09 1058.8 458.16C1058.8 444.37 1053.9 434.15 1048.16 426.87H1042.42C1048.02 434.5 1053.2 444.3 1053.2 458.16ZM1102.92 457.53H1087.73V462.64H1102.92V477.83H1108.03V462.64H1123.29V457.53H1108.03V442.34H1102.92V457.53ZM1190.14 435.76V430.02H1155.21V480H1161.51V457.74H1184.68V452H1161.51V435.76H1190.14ZM1205.24 435.55V429.11H1198.94V435.55H1205.24ZM1205.03 444.72H1199.08V480H1205.03V444.72ZM1234.98 443.81C1229.38 443.81 1226.09 445.98 1224.2 448.5H1222.66V429.11H1216.71V480H1222.45V476.22H1223.99C1225.95 478.67 1229.38 480.91 1234.98 480.91C1244.71 480.91 1250.45 472.79 1250.45 462.36C1250.45 451.72 1244.71 443.81 1234.98 443.81ZM1233.65 475.73C1225.81 475.73 1222.59 469.29 1222.59 462.36C1222.59 455.43 1225.81 448.99 1233.65 448.99C1240.72 448.99 1244.5 454.52 1244.5 462.36C1244.5 470.2 1240.72 475.73 1233.65 475.73ZM1282.48 458.16C1282.48 444.3 1287.66 434.5 1293.26 426.87H1287.52C1281.78 434.15 1276.88 444.37 1276.88 458.16C1276.88 472.09 1281.92 482.66 1288.01 489.87H1293.75C1288.01 482.24 1282.48 472.23 1282.48 458.16ZM1331.2 480V457.6C1331.2 449.13 1326.44 443.81 1317.76 443.81C1313 443.81 1309.08 445.77 1307.12 448.5H1305.58V444.72H1299.84V480H1305.79V460.89C1305.79 454.66 1309.99 449.13 1316.29 449.13C1322.24 449.13 1325.25 452.35 1325.25 458.86V480H1331.2ZM1358.89 463.2V457.95H1339.78V463.2H1358.89ZM1395.29 463.06V431H1386.68L1365.05 461.52V468.52H1389.27V480H1395.29V468.52H1402.01V463.06H1395.29ZM1371.49 463.06V461.52L1387.8 437.93H1389.34V463.06H1371.49ZM1416.8 458.16C1416.8 472.23 1411.27 482.24 1405.53 489.87H1411.27C1417.36 482.66 1422.4 472.09 1422.4 458.16C1422.4 444.37 1417.5 434.15 1411.76 426.87H1406.02C1411.62 434.5 1416.8 444.3 1416.8 458.16Z" fill="#274867"/>
<path d="M1012.4 261.76V256.02H977.468V306H983.768V283.74H1006.94V278H983.768V261.76H1012.4ZM1027.5 261.55V255.11H1021.2V261.55H1027.5ZM1027.29 270.72H1021.34V306H1027.29V270.72ZM1057.25 269.81C1051.65 269.81 1048.36 271.98 1046.47 274.5H1044.93V255.11H1038.98V306H1044.72V302.22H1046.26C1048.22 304.67 1051.65 306.91 1057.25 306.91C1066.98 306.91 1072.72 298.79 1072.72 288.36C1072.72 277.72 1066.98 269.81 1057.25 269.81ZM1055.92 301.73C1048.08 301.73 1044.86 295.29 1044.86 288.36C1044.86 281.43 1048.08 274.99 1055.92 274.99C1062.99 274.99 1066.77 280.52 1066.77 288.36C1066.77 296.2 1062.99 301.73 1055.92 301.73ZM1104.75 284.16C1104.75 270.3 1109.93 260.5 1115.53 252.87H1109.79C1104.05 260.15 1099.15 270.37 1099.15 284.16C1099.15 298.09 1104.19 308.66 1110.28 315.87H1116.02C1110.28 308.24 1104.75 298.23 1104.75 284.16ZM1153.46 306V283.6C1153.46 275.13 1148.7 269.81 1140.02 269.81C1135.26 269.81 1131.34 271.77 1129.38 274.5H1127.84V270.72H1122.1V306H1128.05V286.89C1128.05 280.66 1132.25 275.13 1138.55 275.13C1144.5 275.13 1147.51 278.35 1147.51 284.86V306H1153.46ZM1181.15 289.2V283.95H1162.04V289.2H1181.15ZM1194.45 270.51C1195.08 264.35 1198.93 261.48 1204.46 261.48C1210.41 261.48 1214.33 264.77 1214.33 270.93C1214.33 276.74 1210.06 280.73 1206.7 283.74C1204.11 286.12 1199.49 290.04 1195.57 293.19L1188.36 299.07V306H1222.03V300.54H1197.32V299L1209.64 288.64C1215.45 283.81 1220.49 277.58 1220.49 270.93C1220.49 261.13 1213.77 256.02 1204.6 256.02C1195.92 256.02 1188.85 260.71 1188.29 270.51H1194.45ZM1236.95 284.16C1236.95 298.23 1231.42 308.24 1225.68 315.87H1231.42C1237.51 308.66 1242.55 298.09 1242.55 284.16C1242.55 270.37 1237.65 260.15 1231.91 252.87H1226.17C1231.77 260.5 1236.95 270.3 1236.95 284.16Z" fill="#274867"/>
<path d="M1063.5 188.149L1066.21 212.296C1066.76 217.315 1063.28 221.753 1058.26 222.275L1034.09 224.847" stroke="#007BFF" stroke-width="4" stroke-miterlimit="10" stroke-linecap="round"/>
<path d="M1056.27 212.317L861 88.5642" stroke="#007BFF" stroke-width="4" stroke-miterlimit="10" stroke-linecap="round"/>
<path d="M108.277 371.292L105.57 395.438C105.021 400.458 108.495 404.896 113.52 405.417L137.692 407.99" stroke="#007BFF" stroke-width="4" stroke-miterlimit="10" stroke-linecap="round"/>
<path d="M115.505 395.459L223 322.141" stroke="#007BFF" stroke-width="4" stroke-miterlimit="10" stroke-linecap="round"/>
<path d="M842.277 371.292L839.57 395.438C839.021 400.458 842.495 404.896 847.52 405.417L871.692 407.99" stroke="#007BFF" stroke-width="4" stroke-miterlimit="10" stroke-linecap="round"/>
<path d="M849.505 395.459L957 322.141" stroke="#007BFF" stroke-width="4" stroke-miterlimit="10" stroke-linecap="round"/>
<path d="M626.557 371.292L629.264 395.438C629.812 400.458 626.339 404.896 621.314 405.417L597.142 407.99" stroke="#007BFF" stroke-width="4" stroke-miterlimit="10" stroke-linecap="round"/>
<path d="M619.329 395.459L511.834 322.141" stroke="#007BFF" stroke-width="4" stroke-miterlimit="10" stroke-linecap="round"/>
<path d="M1360.56 371.292L1363.26 395.438C1363.81 400.458 1360.34 404.896 1355.31 405.417L1331.14 407.99" stroke="#007BFF" stroke-width="4" stroke-miterlimit="10" stroke-linecap="round"/>
<path d="M1353.33 395.459L1245.83 322.141" stroke="#007BFF" stroke-width="4" stroke-miterlimit="10" stroke-linecap="round"/>
<path d="M405.277 188.149L402.57 212.296C402.021 217.315 405.495 221.753 410.52 222.275L434.692 224.847" stroke="#007BFF" stroke-width="4" stroke-miterlimit="10" stroke-linecap="round"/>
<path d="M412.505 212.317L607.778 88.5642" stroke="#007BFF" stroke-width="4" stroke-miterlimit="10" stroke-linecap="round"/>
</g>
<defs>
<clipPath id="clip0">
<rect width="1474" height="560" fill="white"/>
</clipPath>
</defs>
</svg>
