<svg width="1474" height="518" viewBox="0 0 1474 518" fill="none" xmlns="http://www.w3.org/2000/svg">
<g clip-path="url(#clip0)">
<rect width="1474" height="518" fill="white"/>
<path d="M674.757 37.76V32.02H639.827V82H646.127V59.74H669.297V54H646.127V37.76H674.757ZM689.862 37.55V31.11H683.562V37.55H689.862ZM689.652 46.72H683.702V82H689.652V46.72ZM719.606 45.81C714.006 45.81 710.716 47.98 708.826 50.5H707.286V31.11H701.336V82H707.076V78.22H708.616C710.576 80.67 714.006 82.91 719.606 82.91C729.336 82.91 735.076 74.79 735.076 64.36C735.076 53.72 729.336 45.81 719.606 45.81ZM718.276 77.73C710.436 77.73 707.216 71.29 707.216 64.36C707.216 57.43 710.436 50.99 718.276 50.99C725.346 50.99 729.126 56.52 729.126 64.36C729.126 72.2 725.346 77.73 718.276 77.73ZM767.105 60.16C767.105 46.3 772.285 36.5 777.885 28.87H772.145C766.405 36.15 761.505 46.37 761.505 60.16C761.505 74.09 766.545 84.66 772.635 91.87H778.375C772.635 84.24 767.105 74.23 767.105 60.16ZM815.821 82V59.6C815.821 51.13 811.061 45.81 802.381 45.81C797.621 45.81 793.701 47.77 791.741 50.5H790.201V46.72H784.461V82H790.411V62.89C790.411 56.66 794.611 51.13 800.911 51.13C806.861 51.13 809.871 54.35 809.871 60.86V82H815.821ZM832.587 60.16C832.587 74.23 827.057 84.24 821.317 91.87H827.057C833.147 84.66 838.187 74.09 838.187 60.16C838.187 46.37 833.287 36.15 827.547 28.87H821.807C827.407 36.5 832.587 46.3 832.587 60.16Z" fill="#274867"/>
<path d="M275.632 239.76V234.02H240.702V284H247.002V261.74H270.172V256H247.002V239.76H275.632ZM290.737 239.55V233.11H284.437V239.55H290.737ZM290.527 248.72H284.577V284H290.527V248.72ZM320.481 247.81C314.881 247.81 311.591 249.98 309.701 252.5H308.161V233.11H302.211V284H307.951V280.22H309.491C311.451 282.67 314.881 284.91 320.481 284.91C330.211 284.91 335.951 276.79 335.951 266.36C335.951 255.72 330.211 247.81 320.481 247.81ZM319.151 279.73C311.311 279.73 308.091 273.29 308.091 266.36C308.091 259.43 311.311 252.99 319.151 252.99C326.221 252.99 330.001 258.52 330.001 266.36C330.001 274.2 326.221 279.73 319.151 279.73ZM367.98 262.16C367.98 248.3 373.16 238.5 378.76 230.87H373.02C367.28 238.15 362.38 248.37 362.38 262.16C362.38 276.09 367.42 286.66 373.51 293.87H379.25C373.51 286.24 367.98 276.23 367.98 262.16ZM416.696 284V261.6C416.696 253.13 411.936 247.81 403.256 247.81C398.496 247.81 394.576 249.77 392.616 252.5H391.076V248.72H385.336V284H391.286V264.89C391.286 258.66 395.486 253.13 401.786 253.13C407.736 253.13 410.746 256.35 410.746 262.86V284H416.696ZM444.382 267.2V261.95H425.272V267.2H444.382ZM451.948 284H480.438V278.54H469.728V235H462.098L451.878 241.93V248.37L462.168 241.44H463.568V278.54H451.948V284ZM494.712 262.16C494.712 276.23 489.182 286.24 483.442 293.87H489.182C495.272 286.66 500.312 276.09 500.312 262.16C500.312 248.37 495.412 238.15 489.672 230.87H483.932C489.532 238.5 494.712 248.3 494.712 262.16Z" fill="#274867"/>
<path d="M734.423 263.53H719.233V268.64H734.423V283.83H739.533V268.64H754.793V263.53H739.533V248.34H734.423V263.53Z" fill="#274867"/>
<path d="M92.5998 419.76V414.02H57.6698V464H63.9698V441.74H87.1398V436H63.9698V419.76H92.5998ZM107.705 419.55V413.11H101.405V419.55H107.705ZM107.495 428.72H101.545V464H107.495V428.72ZM137.448 427.81C131.848 427.81 128.558 429.98 126.668 432.5H125.128V413.11H119.178V464H124.918V460.22H126.458C128.418 462.67 131.848 464.91 137.448 464.91C147.178 464.91 152.918 456.79 152.918 446.36C152.918 435.72 147.178 427.81 137.448 427.81ZM136.118 459.73C128.278 459.73 125.058 453.29 125.058 446.36C125.058 439.43 128.278 432.99 136.118 432.99C143.188 432.99 146.968 438.52 146.968 446.36C146.968 454.2 143.188 459.73 136.118 459.73ZM184.947 442.16C184.947 428.3 190.127 418.5 195.727 410.87H189.987C184.247 418.15 179.347 428.37 179.347 442.16C179.347 456.09 184.387 466.66 190.477 473.87H196.217C190.477 466.24 184.947 456.23 184.947 442.16ZM233.663 464V441.6C233.663 433.13 228.903 427.81 220.223 427.81C215.463 427.81 211.543 429.77 209.583 432.5H208.043V428.72H202.303V464H208.253V444.89C208.253 438.66 212.453 433.13 218.753 433.13C224.703 433.13 227.713 436.35 227.713 442.86V464H233.663ZM261.35 447.2V441.95H242.24V447.2H261.35ZM274.656 428.51C275.286 422.35 279.136 419.48 284.666 419.48C290.616 419.48 294.536 422.77 294.536 428.93C294.536 434.74 290.266 438.73 286.906 441.74C284.316 444.12 279.696 448.04 275.776 451.19L268.566 457.07V464H302.236V458.54H277.526V457L289.846 446.64C295.656 441.81 300.696 435.58 300.696 428.93C300.696 419.13 293.976 414.02 284.806 414.02C276.126 414.02 269.056 418.71 268.496 428.51H274.656ZM317.148 442.16C317.148 456.23 311.618 466.24 305.878 473.87H311.618C317.708 466.66 322.748 456.09 322.748 442.16C322.748 428.37 317.848 418.15 312.108 410.87H306.368C311.968 418.5 317.148 428.3 317.148 442.16ZM366.867 441.53H351.677V446.64H366.867V461.83H371.977V446.64H387.237V441.53H371.977V426.34H366.867V441.53ZM454.084 419.76V414.02H419.154V464H425.454V441.74H448.624V436H425.454V419.76H454.084ZM469.189 419.55V413.11H462.889V419.55H469.189ZM468.979 428.72H463.029V464H468.979V428.72ZM498.933 427.81C493.333 427.81 490.043 429.98 488.153 432.5H486.613V413.11H480.663V464H486.403V460.22H487.943C489.903 462.67 493.333 464.91 498.933 464.91C508.663 464.91 514.403 456.79 514.403 446.36C514.403 435.72 508.663 427.81 498.933 427.81ZM497.603 459.73C489.763 459.73 486.543 453.29 486.543 446.36C486.543 439.43 489.763 432.99 497.603 432.99C504.673 432.99 508.453 438.52 508.453 446.36C508.453 454.2 504.673 459.73 497.603 459.73ZM546.432 442.16C546.432 428.3 551.612 418.5 557.212 410.87H551.472C545.732 418.15 540.832 428.37 540.832 442.16C540.832 456.09 545.872 466.66 551.962 473.87H557.702C551.962 466.24 546.432 456.23 546.432 442.16ZM595.148 464V441.6C595.148 433.13 590.388 427.81 581.708 427.81C576.948 427.81 573.028 429.77 571.068 432.5H569.528V428.72H563.788V464H569.738V444.89C569.738 438.66 573.938 433.13 580.238 433.13C586.188 433.13 589.198 436.35 589.198 442.86V464H595.148ZM622.834 447.2V441.95H603.724V447.2H622.834ZM631.801 415V420.32H653.221V421.86L641.251 432.22V438.73C642.371 438.45 643.771 438.31 645.521 438.31C652.731 438.31 656.581 442.3 656.581 448.74C656.581 455.46 652.171 459.45 645.451 459.45C639.571 459.45 635.021 455.88 634.461 450.28H628.301C628.861 458.61 635.511 464.91 645.451 464.91C655.461 464.91 662.741 458.89 662.741 448.74C662.741 439.29 656.581 434.04 648.181 433.83V432.36L660.431 421.86V415H631.801ZM677.744 442.16C677.744 456.23 672.214 466.24 666.474 473.87H672.214C678.304 466.66 683.344 456.09 683.344 442.16C683.344 428.37 678.444 418.15 672.704 410.87H666.964C672.564 418.5 677.744 428.3 677.744 442.16Z" fill="#274867"/>
<path d="M829.54 419.76V414.02H794.61V464H800.91V441.74H824.08V436H800.91V419.76H829.54ZM844.645 419.55V413.11H838.345V419.55H844.645ZM844.435 428.72H838.485V464H844.435V428.72ZM874.389 427.81C868.789 427.81 865.499 429.98 863.609 432.5H862.069V413.11H856.119V464H861.859V460.22H863.399C865.359 462.67 868.789 464.91 874.389 464.91C884.119 464.91 889.859 456.79 889.859 446.36C889.859 435.72 884.119 427.81 874.389 427.81ZM873.059 459.73C865.219 459.73 861.999 453.29 861.999 446.36C861.999 439.43 865.219 432.99 873.059 432.99C880.129 432.99 883.909 438.52 883.909 446.36C883.909 454.2 880.129 459.73 873.059 459.73ZM921.888 442.16C921.888 428.3 927.068 418.5 932.668 410.87H926.928C921.188 418.15 916.288 428.37 916.288 442.16C916.288 456.09 921.328 466.66 927.418 473.87H933.158C927.418 466.24 921.888 456.23 921.888 442.16ZM970.604 464V441.6C970.604 433.13 965.844 427.81 957.164 427.81C952.404 427.81 948.484 429.77 946.524 432.5H944.984V428.72H939.244V464H945.194V444.89C945.194 438.66 949.394 433.13 955.694 433.13C961.644 433.13 964.654 436.35 964.654 442.86V464H970.604ZM998.29 447.2V441.95H979.18V447.2H998.29ZM1007.26 415V420.32H1028.68V421.86L1016.71 432.22V438.73C1017.83 438.45 1019.23 438.31 1020.98 438.31C1028.19 438.31 1032.04 442.3 1032.04 448.74C1032.04 455.46 1027.63 459.45 1020.91 459.45C1015.03 459.45 1010.48 455.88 1009.92 450.28H1003.76C1004.32 458.61 1010.97 464.91 1020.91 464.91C1030.92 464.91 1038.2 458.89 1038.2 448.74C1038.2 439.29 1032.04 434.04 1023.64 433.83V432.36L1035.89 421.86V415H1007.26ZM1053.2 442.16C1053.2 456.23 1047.67 466.24 1041.93 473.87H1047.67C1053.76 466.66 1058.8 456.09 1058.8 442.16C1058.8 428.37 1053.9 418.15 1048.16 410.87H1042.42C1048.02 418.5 1053.2 428.3 1053.2 442.16ZM1102.92 441.53H1087.73V446.64H1102.92V461.83H1108.03V446.64H1123.29V441.53H1108.03V426.34H1102.92V441.53ZM1190.14 419.76V414.02H1155.21V464H1161.51V441.74H1184.68V436H1161.51V419.76H1190.14ZM1205.24 419.55V413.11H1198.94V419.55H1205.24ZM1205.03 428.72H1199.08V464H1205.03V428.72ZM1234.98 427.81C1229.38 427.81 1226.09 429.98 1224.2 432.5H1222.66V413.11H1216.71V464H1222.45V460.22H1223.99C1225.95 462.67 1229.38 464.91 1234.98 464.91C1244.71 464.91 1250.45 456.79 1250.45 446.36C1250.45 435.72 1244.71 427.81 1234.98 427.81ZM1233.65 459.73C1225.81 459.73 1222.59 453.29 1222.59 446.36C1222.59 439.43 1225.81 432.99 1233.65 432.99C1240.72 432.99 1244.5 438.52 1244.5 446.36C1244.5 454.2 1240.72 459.73 1233.65 459.73ZM1282.48 442.16C1282.48 428.3 1287.66 418.5 1293.26 410.87H1287.52C1281.78 418.15 1276.88 428.37 1276.88 442.16C1276.88 456.09 1281.92 466.66 1288.01 473.87H1293.75C1288.01 466.24 1282.48 456.23 1282.48 442.16ZM1331.2 464V441.6C1331.2 433.13 1326.44 427.81 1317.76 427.81C1313 427.81 1309.08 429.77 1307.12 432.5H1305.58V428.72H1299.84V464H1305.79V444.89C1305.79 438.66 1309.99 433.13 1316.29 433.13C1322.24 433.13 1325.25 436.35 1325.25 442.86V464H1331.2ZM1358.89 447.2V441.95H1339.78V447.2H1358.89ZM1395.29 447.06V415H1386.68L1365.05 445.52V452.52H1389.27V464H1395.29V452.52H1402.01V447.06H1395.29ZM1371.49 447.06V445.52L1387.8 421.93H1389.34V447.06H1371.49ZM1416.8 442.16C1416.8 456.23 1411.27 466.24 1405.53 473.87H1411.27C1417.36 466.66 1422.4 456.09 1422.4 442.16C1422.4 428.37 1417.5 418.15 1411.76 410.87H1406.02C1411.62 418.5 1416.8 428.3 1416.8 442.16Z" fill="#274867"/>
<path d="M1005.4 239.76V234.02H970.468V284H976.768V261.74H999.938V256H976.768V239.76H1005.4ZM1020.5 239.55V233.11H1014.2V239.55H1020.5ZM1020.29 248.72H1014.34V284H1020.29V248.72ZM1050.25 247.81C1044.65 247.81 1041.36 249.98 1039.47 252.5H1037.93V233.11H1031.98V284H1037.72V280.22H1039.26C1041.22 282.67 1044.65 284.91 1050.25 284.91C1059.98 284.91 1065.72 276.79 1065.72 266.36C1065.72 255.72 1059.98 247.81 1050.25 247.81ZM1048.92 279.73C1041.08 279.73 1037.86 273.29 1037.86 266.36C1037.86 259.43 1041.08 252.99 1048.92 252.99C1055.99 252.99 1059.77 258.52 1059.77 266.36C1059.77 274.2 1055.99 279.73 1048.92 279.73ZM1097.75 262.16C1097.75 248.3 1102.93 238.5 1108.53 230.87H1102.79C1097.05 238.15 1092.15 248.37 1092.15 262.16C1092.15 276.09 1097.19 286.66 1103.28 293.87H1109.02C1103.28 286.24 1097.75 276.23 1097.75 262.16ZM1146.46 284V261.6C1146.46 253.13 1141.7 247.81 1133.02 247.81C1128.26 247.81 1124.34 249.77 1122.38 252.5H1120.84V248.72H1115.1V284H1121.05V264.89C1121.05 258.66 1125.25 253.13 1131.55 253.13C1137.5 253.13 1140.51 256.35 1140.51 262.86V284H1146.46ZM1174.15 267.2V261.95H1155.04V267.2H1174.15ZM1187.45 248.51C1188.08 242.35 1191.93 239.48 1197.46 239.48C1203.41 239.48 1207.33 242.77 1207.33 248.93C1207.33 254.74 1203.06 258.73 1199.7 261.74C1197.11 264.12 1192.49 268.04 1188.57 271.19L1181.36 277.07V284H1215.03V278.54H1190.32V277L1202.64 266.64C1208.45 261.81 1213.49 255.58 1213.49 248.93C1213.49 239.13 1206.77 234.02 1197.6 234.02C1188.92 234.02 1181.85 238.71 1181.29 248.51H1187.45ZM1229.95 262.16C1229.95 276.23 1224.42 286.24 1218.68 293.87H1224.42C1230.51 286.66 1235.55 276.09 1235.55 262.16C1235.55 248.37 1230.65 238.15 1224.91 230.87H1219.17C1224.77 238.5 1229.95 248.3 1229.95 262.16Z" fill="#274867"/>
<path d="M1063.5 168.149L1066.21 192.296C1066.76 197.315 1063.28 201.753 1058.26 202.275L1034.09 204.847" stroke="#007BFF" stroke-width="4" stroke-miterlimit="10" stroke-linecap="round"/>
<path d="M1056.27 192.317L861 68.5642" stroke="#007BFF" stroke-width="4" stroke-miterlimit="10" stroke-linecap="round"/>
<path d="M108.277 351.292L105.57 375.438C105.021 380.458 108.495 384.896 113.52 385.417L137.692 387.99" stroke="#007BFF" stroke-width="4" stroke-miterlimit="10" stroke-linecap="round"/>
<path d="M115.505 375.459L223 302.141" stroke="#007BFF" stroke-width="4" stroke-miterlimit="10" stroke-linecap="round"/>
<path d="M842.277 351.292L839.57 375.438C839.021 380.458 842.495 384.896 847.52 385.417L871.692 387.99" stroke="#007BFF" stroke-width="4" stroke-miterlimit="10" stroke-linecap="round"/>
<path d="M849.505 375.459L957 302.141" stroke="#007BFF" stroke-width="4" stroke-miterlimit="10" stroke-linecap="round"/>
<path d="M626.557 351.292L629.264 375.438C629.812 380.458 626.339 384.896 621.314 385.417L597.142 387.99" stroke="#007BFF" stroke-width="4" stroke-miterlimit="10" stroke-linecap="round"/>
<path d="M619.329 375.459L511.834 302.141" stroke="#007BFF" stroke-width="4" stroke-miterlimit="10" stroke-linecap="round"/>
<path d="M1360.56 351.292L1363.26 375.438C1363.81 380.458 1360.34 384.896 1355.31 385.417L1331.14 387.99" stroke="#007BFF" stroke-width="4" stroke-miterlimit="10" stroke-linecap="round"/>
<path d="M1353.33 375.459L1245.83 302.141" stroke="#007BFF" stroke-width="4" stroke-miterlimit="10" stroke-linecap="round"/>
<path d="M405.277 168.149L402.57 192.296C402.021 197.315 405.495 201.753 410.52 202.275L434.692 204.847" stroke="#007BFF" stroke-width="4" stroke-miterlimit="10" stroke-linecap="round"/>
<path d="M412.505 192.317L607.778 68.5642" stroke="#007BFF" stroke-width="4" stroke-miterlimit="10" stroke-linecap="round"/>
<rect x="956" y="219" width="291" height="83" rx="6" stroke="#274867" stroke-width="4"/>
<rect x="43" y="400" width="291" height="83" rx="6" stroke="#274867" stroke-width="4"/>
<rect x="403" y="400" width="291" height="83" rx="6" stroke="#007BFF" stroke-width="4"/>
<rect x="779" y="400" width="291" height="83" rx="6" stroke="#007BFF" stroke-width="4"/>
</g>
<defs>
<clipPath id="clip0">
<rect width="1474" height="518" fill="white"/>
</clipPath>
</defs>
</svg>
