<svg width="1474" height="492" viewBox="0 0 1474 492" fill="none" xmlns="http://www.w3.org/2000/svg">
<g clip-path="url(#clip0)">
<rect width="1474" height="492" fill="white"/>
<path d="M256.177 63.032C239.601 63.032 227.393 75.576 227.393 103.8C227.393 132.024 239.601 144.456 256.177 144.456C272.753 144.456 285.073 132.024 285.073 103.8C285.073 75.576 272.753 63.032 256.177 63.032ZM256.177 135.72C243.185 135.72 237.249 123.176 237.249 103.8C237.249 84.312 243.185 71.768 256.177 71.768C269.281 71.768 275.217 84.312 275.217 103.8C275.217 123.176 269.281 135.72 256.177 135.72Z" fill="#274867"/>
<path d="M234.623 346H280.207V337.264H263.071V267.6H250.863L234.511 278.688V288.992L250.975 277.904H253.215V337.264H234.623V346Z" fill="#274867"/>
<path d="M252.11 200.048H227.806V208.224H252.11V232.528H260.286V208.224H284.702V200.048H260.286V175.744H252.11V200.048Z" fill="#274867"/>
<path d="M99.5631 126V90.16C99.5631 76.608 91.9471 68.096 78.0591 68.096C70.4431 68.096 64.1711 71.232 61.0351 75.6H58.5711V69.552H49.3871V126H58.9071V95.424C58.9071 85.456 65.6271 76.608 75.7071 76.608C85.2271 76.608 90.0431 81.76 90.0431 92.176V126H99.5631Z" fill="#274867"/>
<path d="M99.5631 328V292.16C99.5631 278.608 91.9471 270.096 78.0591 270.096C70.4431 270.096 64.1711 273.232 61.0351 277.6H58.5711V271.552H49.3871V328H58.9071V297.424C58.9071 287.456 65.6271 278.608 75.7071 278.608C85.2271 278.608 90.0431 283.76 90.0431 294.176V328H99.5631Z" fill="#274867"/>
<path d="M127.508 100.16C118.388 100.16 111.548 106.76 111.548 122C111.548 137.18 118.388 143.78 127.508 143.78C136.568 143.78 143.468 137.18 143.468 122C143.468 106.76 136.568 100.16 127.508 100.16ZM127.508 137.54C120.788 137.54 118.568 130.52 118.568 122C118.568 113.42 120.788 106.4 127.508 106.4C134.228 106.4 136.448 113.42 136.448 122C136.448 130.52 134.228 137.54 127.508 137.54Z" fill="#274867"/>
<path d="M114.833 345H140.453V338.88H131.513V303H123.173L114.773 308.76V315.78L123.113 310.14H124.553V338.88H114.833V345Z" fill="#274867"/>
<path d="M444.748 143H490.332V134.264H473.196V64.6H460.988L444.636 75.688V85.992L461.1 74.904H463.34V134.264H444.748V143Z" fill="#274867"/>
<path d="M444.748 346H490.332V337.264H473.196V267.6H460.988L444.636 278.688V288.992L461.1 277.904H463.34V337.264H444.748V346Z" fill="#274867"/>
<path d="M462.235 200.048H437.931V208.224H462.235V232.528H470.411V208.224H494.827V200.048H470.411V175.744H462.235V200.048Z" fill="#274867"/>
<path d="M647.748 143H693.332V134.264H676.196V64.6H663.988L647.636 75.688V85.992L664.1 74.904H666.34V134.264H647.748V143Z" fill="#274867"/>
<path d="M652.557 289.216C653.565 279.36 659.725 274.768 668.573 274.768C678.093 274.768 684.365 280.032 684.365 289.888C684.365 299.184 677.533 305.568 672.157 310.384C668.013 314.192 660.621 320.464 654.349 325.504L642.813 334.912V346H696.685V337.264H657.149V334.8L676.861 318.224C686.157 310.496 694.221 300.528 694.221 289.888C694.221 274.208 683.469 266.032 668.797 266.032C654.909 266.032 643.597 273.536 642.701 289.216H652.557Z" fill="#274867"/>
<path d="M665.235 200.048H640.931V208.224H665.235V232.528H673.411V208.224H697.827V200.048H673.411V175.744H665.235V200.048Z" fill="#274867"/>
<path d="M859.854 86.216C860.862 76.36 867.022 71.768 875.87 71.768C885.39 71.768 891.662 77.032 891.662 86.888C891.662 96.184 884.83 102.568 879.454 107.384C875.31 111.192 867.918 117.464 861.646 122.504L850.11 131.912V143H903.982V134.264H864.446V131.8L884.158 115.224C893.454 107.496 901.518 97.528 901.518 86.888C901.518 71.208 890.766 63.032 876.094 63.032C862.206 63.032 850.894 70.536 849.998 86.216H859.854Z" fill="#274867"/>
<path d="M853.621 267.6V276.112H887.893V278.576L868.741 295.152V305.568C870.533 305.12 872.773 304.896 875.573 304.896C887.109 304.896 893.269 311.28 893.269 321.584C893.269 332.336 886.213 338.72 875.461 338.72C866.053 338.72 858.773 333.008 857.877 324.048H848.021C848.917 337.376 859.557 347.456 875.461 347.456C891.477 347.456 903.125 337.824 903.125 321.584C903.125 306.464 893.269 298.064 879.829 297.728V295.376L899.429 278.576V267.6H853.621Z" fill="#274867"/>
<path d="M872.531 200.048H848.227V208.224H872.531V232.528H880.707V208.224H905.123V200.048H880.707V175.744H872.531V200.048Z" fill="#274867"/>
<path d="M1064.62 64.6V73.112H1098.89V75.576L1079.74 92.152V102.568C1081.53 102.12 1083.77 101.896 1086.57 101.896C1098.11 101.896 1104.27 108.28 1104.27 118.584C1104.27 129.336 1097.21 135.72 1086.46 135.72C1077.05 135.72 1069.77 130.008 1068.88 121.048H1059.02C1059.92 134.376 1070.56 144.456 1086.46 144.456C1102.48 144.456 1114.12 134.824 1114.12 118.584C1114.12 103.464 1104.27 95.064 1090.83 94.728V92.376L1110.43 75.576V64.6H1064.62Z" fill="#274867"/>
<path d="M1089.85 293.248C1082.57 293.248 1078.32 295.488 1074.73 298.736H1072.27L1074.06 276.112H1110.91V267.6H1066.11L1062.64 308.928H1072.49C1075.85 304 1081.01 301.536 1088.06 301.536C1098.59 301.536 1105.2 309.152 1105.2 319.904C1105.2 331.552 1098.14 338.72 1087.73 338.72C1078.21 338.72 1071.82 333.792 1070.59 324.048H1060.85C1061.74 337.264 1070.93 347.456 1088.17 347.456C1104.08 347.456 1115.05 336.48 1115.05 319.456C1115.05 304.896 1105.53 293.248 1089.85 293.248Z" fill="#274867"/>
<path d="M1083.53 200.048H1059.23V208.224H1083.53V232.528H1091.71V208.224H1116.12V200.048H1091.71V175.744H1083.53V200.048Z" fill="#274867"/>
<path d="M1301.71 90.248C1294.43 90.248 1290.18 92.488 1286.59 95.736H1284.13L1285.92 73.112H1322.77V64.6H1277.97L1274.5 105.928H1284.35C1287.71 101 1292.87 98.536 1299.92 98.536C1310.45 98.536 1317.06 106.152 1317.06 116.904C1317.06 128.552 1310 135.72 1299.59 135.72C1290.07 135.72 1283.68 130.792 1282.45 121.048H1272.71C1273.6 134.264 1282.79 144.456 1300.03 144.456C1315.94 144.456 1326.91 133.48 1326.91 116.456C1326.91 101.896 1317.39 90.248 1301.71 90.248Z" fill="#274867"/>
<path d="M1314.66 303.44C1318.69 301.648 1324.51 295.712 1324.51 286.976C1324.51 274.544 1313.76 266.032 1298.53 266.032C1283.3 266.032 1272.54 274.544 1272.54 286.976C1272.54 295.936 1278.26 301.648 1282.4 303.44V305.904C1277.14 307.696 1270.19 314.304 1270.19 324.608C1270.19 337.6 1281.28 347.456 1298.53 347.456C1315.78 347.456 1326.86 337.6 1326.86 324.608C1326.86 314.192 1319.81 307.696 1314.66 305.904V303.44ZM1298.53 274.544C1307.49 274.544 1314.88 279.024 1314.88 287.424C1314.88 295.824 1307.49 300.416 1298.53 300.416C1289.57 300.416 1282.18 295.824 1282.18 287.424C1282.18 279.024 1289.57 274.544 1298.53 274.544ZM1298.53 338.72C1286.99 338.72 1279.94 332.784 1279.94 323.712C1279.94 314.416 1286.99 308.928 1298.53 308.928C1310.06 308.928 1317.12 314.416 1317.12 323.712C1317.12 332.784 1310.06 338.72 1298.53 338.72ZM1384.28 346V333.008H1372.63V346H1384.28ZM1413.15 346V333.008H1401.51V346H1413.15ZM1442.03 346V333.008H1430.38V346H1442.03Z" fill="#274867"/>
<path d="M1295.39 200.048H1271.09V208.224H1295.39V232.528H1303.57V208.224H1327.98V200.048H1303.57V175.744H1295.39V200.048Z" fill="#274867"/>
<path d="M382.285 153.001L406.582 152.854C411.632 152.838 415.679 156.76 415.668 161.811L415.678 186.12" stroke="#007BFF" stroke-width="4" stroke-miterlimit="10" stroke-linecap="round"/>
<path d="M405.556 162.734L302.883 275.294" stroke="#007BFF" stroke-width="4" stroke-miterlimit="10" stroke-linecap="round"/>
<path d="M422.905 370.556L443.66 374.269C447.971 375.052 450.805 379.038 449.997 383.346L446.166 404.089" stroke="#007BFF" stroke-width="4" stroke-miterlimit="10" stroke-linecap="round"/>
<path d="M441.961 382.594C389.532 415.57 325.761 413.972 286.051 375.646" stroke="#007BFF" stroke-width="4" stroke-miterlimit="10" stroke-linecap="round"/>
<path d="M406.03 416.445C387.078 431.061 337.936 431.077 318.389 412.976" stroke="#007BFF" stroke-width="4" stroke-miterlimit="10" stroke-linecap="round"/>
<path d="M837.052 370.556L857.807 374.269C862.118 375.052 864.951 379.038 864.143 383.346L860.313 404.089" stroke="#007BFF" stroke-width="4" stroke-miterlimit="10" stroke-linecap="round"/>
<path d="M856.108 382.594C803.679 415.57 739.908 413.972 700.197 375.646" stroke="#007BFF" stroke-width="4" stroke-miterlimit="10" stroke-linecap="round"/>
<path d="M820.176 416.445C801.224 431.061 752.083 431.077 732.535 412.976" stroke="#007BFF" stroke-width="4" stroke-miterlimit="10" stroke-linecap="round"/>
<path d="M630.052 370.556L650.807 374.269C655.118 375.052 657.951 379.038 657.143 383.346L653.313 404.089" stroke="#007BFF" stroke-width="4" stroke-miterlimit="10" stroke-linecap="round"/>
<path d="M649.108 382.594C596.679 415.57 532.908 413.972 493.197 375.646" stroke="#007BFF" stroke-width="4" stroke-miterlimit="10" stroke-linecap="round"/>
<path d="M613.176 416.445C594.224 431.061 545.083 431.077 525.535 412.976" stroke="#007BFF" stroke-width="4" stroke-miterlimit="10" stroke-linecap="round"/>
<path d="M1044.05 370.556L1064.81 374.269C1069.12 375.052 1071.95 379.038 1071.14 383.346L1067.31 404.089" stroke="#007BFF" stroke-width="4" stroke-miterlimit="10" stroke-linecap="round"/>
<path d="M1063.11 382.594C1010.68 415.57 946.908 413.972 907.197 375.646" stroke="#007BFF" stroke-width="4" stroke-miterlimit="10" stroke-linecap="round"/>
<path d="M1027.18 416.445C1008.22 431.061 959.083 431.077 939.535 412.976" stroke="#007BFF" stroke-width="4" stroke-miterlimit="10" stroke-linecap="round"/>
<path d="M1251.05 370.556L1271.81 374.269C1276.12 375.052 1278.95 379.038 1278.14 383.346L1274.31 404.089" stroke="#007BFF" stroke-width="4" stroke-miterlimit="10" stroke-linecap="round"/>
<path d="M1270.11 382.594C1217.68 415.57 1153.91 413.972 1114.2 375.646" stroke="#007BFF" stroke-width="4" stroke-miterlimit="10" stroke-linecap="round"/>
<path d="M1234.18 416.445C1215.22 431.061 1166.08 431.077 1146.54 412.976" stroke="#007BFF" stroke-width="4" stroke-miterlimit="10" stroke-linecap="round"/>
<path d="M804.285 153.142L828.582 152.995C833.632 152.978 837.679 156.9 837.668 161.952L837.678 186.261" stroke="#007BFF" stroke-width="4" stroke-miterlimit="10" stroke-linecap="round"/>
<path d="M827.556 162.875L724.883 275.435" stroke="#007BFF" stroke-width="4" stroke-miterlimit="10" stroke-linecap="round"/>
<path d="M593.285 153.142L617.582 152.995C622.632 152.978 626.679 156.9 626.668 161.952L626.678 186.261" stroke="#007BFF" stroke-width="4" stroke-miterlimit="10" stroke-linecap="round"/>
<path d="M616.556 162.875L513.883 275.435" stroke="#007BFF" stroke-width="4" stroke-miterlimit="10" stroke-linecap="round"/>
<path d="M1015.28 153.142L1039.58 152.995C1044.63 152.978 1048.68 156.9 1048.67 161.952L1048.68 186.261" stroke="#007BFF" stroke-width="4" stroke-miterlimit="10" stroke-linecap="round"/>
<path d="M1038.56 162.875L935.883 275.435" stroke="#007BFF" stroke-width="4" stroke-miterlimit="10" stroke-linecap="round"/>
<path d="M1226.28 153.142L1250.58 152.995C1255.63 152.978 1259.68 156.9 1259.67 161.952L1259.68 186.261" stroke="#007BFF" stroke-width="4" stroke-miterlimit="10" stroke-linecap="round"/>
<path d="M1249.56 162.875L1146.88 275.435" stroke="#007BFF" stroke-width="4" stroke-miterlimit="10" stroke-linecap="round"/>
</g>
<defs>
<clipPath id="clip0">
<rect width="1474" height="492" fill="white"/>
</clipPath>
</defs>
</svg>
