<?xml version="1.0" encoding="utf-8"?>
<!-- Generator: Adobe Illustrator 20.1.0, SVG Export Plug-In . SVG Version: 6.00 Build 0)  -->
<svg version="1.1" id="Layer_1" xmlns="http://www.w3.org/2000/svg" xmlns:xlink="http://www.w3.org/1999/xlink" x="0px" y="0px"
	 viewBox="0 0 1474 738" style="enable-background:new 0 0 1474 738;" xml:space="preserve">
<style type="text/css">
	.st0{fill:#FFFFFF;}
	.st1{fill:none;stroke:#007BFF;stroke-width:4;stroke-linecap:round;stroke-miterlimit:10;}
	.st2{fill:none;stroke:#007BFF;stroke-width:2;}
	.st3{fill:#007BFF;stroke:#007BFF;stroke-width:2;}
	.st4{fill:none;stroke:#007BFF;stroke-width:4.0627;stroke-linecap:round;stroke-miterlimit:10;}
	.st5{fill:none;stroke:#007BFF;stroke-width:3.9588;stroke-linecap:round;}
	.st6{fill:none;stroke:#007BFF;stroke-width:4.1142;stroke-linecap:round;stroke-miterlimit:10;}
	.st7{fill:none;stroke:#007BFF;stroke-width:3.9308;stroke-linecap:round;}
	.st8{fill:#364966;}
</style>
<rect y="0" class="st0" width="1474" height="738"/>
<g>
	<path class="st1" d="M671.3,172l11.1-12c2.3-2.5,6.1-2.6,8.6-0.3l12,11.1"/>
	<path class="st1" d="M687,333.8v-170"/>
</g>
<g>
	<path class="st1" d="M671.3,485l11.1-12c2.3-2.5,6.1-2.6,8.6-0.3l12,11.1"/>
	<path class="st1" d="M686.9,588.8V477.3"/>
</g>
<path class="st2" d="M47,340h256c12.7,0,23,10.3,23,23v79c0,12.7-10.3,23-23,23H47c-12.7,0-23-10.3-23-23v-79
	C24,350.3,34.3,340,47,340z"/>
<path class="st3" d="M559,26h256c12.7,0,23,10.3,23,23v79c0,12.7-10.3,23-23,23H559c-12.7,0-23-10.3-23-23V49
	C536,36.3,546.3,26,559,26z"/>
<path class="st2" d="M482,340h410c12.7,0,23,10.3,23,23v79c0,12.7-10.3,23-23,23H482c-12.7,0-23-10.3-23-23v-79
	C459,350.3,469.3,340,482,340z"/>
<path class="st2" d="M1067,340h359c12.7,0,23,10.3,23,23v79c0,12.7-10.3,23-23,23h-359c-12.7,0-23-10.3-23-23v-79
	C1044,350.3,1054.3,340,1067,340z"/>
<path class="st2" d="M442,595h490c12.7,0,23,10.3,23,23v79c0,12.7-10.3,23-23,23H442c-12.7,0-23-10.3-23-23v-79
	C419,605.3,429.3,595,442,595z"/>
<path class="st1" d="M515.9,70.4l11.1,12c2.3,2.5,2.2,6.3-0.3,8.6l-12,11.1"/>
<path class="st4" d="M171,334.6V86"/>
<line class="st5" x1="171" y1="86" x2="521.7" y2="86"/>
<path class="st1" d="M857.7,74.1l-11.1,12c-2.3,2.5-2.2,6.3,0.3,8.6l12,11.1"/>
<path class="st6" d="M1244,333.8V90.5"/>
<line class="st7" x1="1244" y1="90.1" x2="851.9" y2="90.1"/>
<path class="st0" d="M567.5,76v20h2.5v-8.4h5.8c0.5,0,1.1,0,1.6-0.1l3,8.5h2.6l-3.2-9c2-0.9,3.1-2.7,3.1-5.1c0-3.7-2.4-5.8-6.6-5.8
	H567.5z M570.1,85.4v-7.1h6c3.2,0,4.4,1.3,4.4,3.6c0,2.2-1.2,3.6-4.4,3.6H570.1z"/>
<path class="st0" d="M586.9,81.9v9c0,3.4,1.9,5.5,5.4,5.5c1.9,0,3.5-0.8,4.3-1.9h0.6V96h2.3V81.9h-2.4v7.6c0,2.5-1.7,4.7-4.2,4.7
	c-2.4,0-3.6-1.3-3.6-3.9v-8.5H586.9z"/>
<path class="st0" d="M616.6,96v-9c0-3.4-1.9-5.5-5.4-5.5c-1.9,0-3.5,0.8-4.3,1.9h-0.6v-1.5H604V96h2.4v-7.6c0-2.5,1.7-4.7,4.2-4.7
	c2.4,0,3.6,1.3,3.6,3.9V96H616.6z"/>
<path class="st0" d="M624.2,81.9v-4.3h-2.4v4.3h-2.4V84h2.4v8.1c0,3,1.8,3.9,4.8,3.9h1.1v-2.1h-1c-1.9,0-2.5-0.7-2.5-2.2V84h3.6
	v-2.1H624.2z"/>
<path class="st0" d="M634.2,78.2v-2.6h-2.5v2.6H634.2z M634.1,81.9h-2.4V96h2.4V81.9z"/>
<path class="st0" d="M653.6,81.5c-1.8,0-3.1,0.6-4,1.9H649c-0.8-1.3-2-1.9-3.7-1.9c-1.8,0-2.9,0.6-3.6,1.7h-0.6v-1.4h-2.3V96h2.4
	v-7.8c0-2.5,1.1-4.5,3.5-4.5c1.8,0,2.7,1.2,2.7,3.5V96h2.4v-8.3c0-2.4,1.2-4.1,3.4-4.1c1.8,0,2.7,1.1,2.7,3.5V96h2.4v-9.1
	C658.3,83.6,656.9,81.5,653.6,81.5z"/>
<path class="st0" d="M674.9,88.1c-0.1-3.5-2.1-6.6-6.3-6.6c-4.3,0-6.8,2.9-6.8,7.3c0,4.3,2.5,7.6,6.9,7.6c3.5,0,5.5-1.8,6-4.3h-2.4
	c-0.4,1.3-1.6,2.2-3.6,2.2c-2.9,0-4.4-2-4.5-5.4h10.8V88.1z M668.5,83.6c2.4,0,3.8,1.5,3.9,3.3h-8.1
	C664.5,85.1,665.9,83.6,668.5,83.6z"/>
<path class="st0" d="M681.3,93.7v-6.9h9.2v-2.3h-9.2v-6.2h11.4V76h-13.9v20h14.4v-2.3H681.3z"/>
<path class="st0" d="M706.3,96h2.7l-4.4-7.3l4-6.8h-2.5l-3.3,5.6h-1l-3.2-5.6H696l3.9,6.9l-4.4,7.2h2.6l3.6-5.9h1L706.3,96z"/>
<path class="st0" d="M721.4,91.7c-0.4,1.6-1.5,2.5-3.6,2.5c-3.2,0-4.5-2.6-4.5-5.4c0-2.8,1.3-5.3,4.5-5.3c1.9,0,3,1,3.5,2.4h2.4
	c-0.5-2.6-2.5-4.5-5.9-4.5c-4.4,0-6.9,3.2-6.9,7.4c0,4.2,2.5,7.4,6.9,7.4c3.3,0,5.4-1.8,5.9-4.6H721.4z"/>
<path class="st0" d="M739.6,88.1c-0.1-3.5-2.1-6.6-6.3-6.6c-4.3,0-6.8,2.9-6.8,7.3c0,4.3,2.5,7.6,6.9,7.6c3.5,0,5.5-1.8,6-4.3h-2.4
	c-0.4,1.3-1.6,2.2-3.6,2.2c-2.9,0-4.4-2-4.5-5.4h10.8V88.1z M733.2,83.6c2.4,0,3.8,1.5,3.9,3.3H729
	C729.3,85.1,730.7,83.6,733.2,83.6z"/>
<path class="st0" d="M750.1,83.6c2.8,0,4.3,2.2,4.3,5.3s-1.5,5.3-4.3,5.3c-3.1,0-4.4-2.6-4.4-5.3S746.9,83.6,750.1,83.6z
	 M743.3,81.9v19.7h2.4v-7.1h0.6c0.8,1,2.1,1.9,4.3,1.9c3.9,0,6.2-3.2,6.2-7.4c0-4.2-2.3-7.4-6.2-7.4c-2.2,0-3.6,0.9-4.4,1.9h-0.6
	v-1.5H743.3z"/>
<path class="st0" d="M763.8,81.9v-4.3h-2.4v4.3H759V84h2.4v8.1c0,3,1.8,3.9,4.8,3.9h1.1v-2.1h-1c-1.9,0-2.5-0.7-2.5-2.2V84h3.6v-2.1
	H763.8z"/>
<path class="st0" d="M773.8,78.2v-2.6h-2.5v2.6H773.8z M773.7,81.9h-2.4V96h2.4V81.9z"/>
<path class="st0" d="M784.5,81.5c-4.4,0-6.9,3.2-6.9,7.4s2.5,7.4,6.9,7.4c4.4,0,6.9-3.2,6.9-7.4S788.9,81.5,784.5,81.5z M784.5,94.3
	c-3.1,0-4.6-2.6-4.6-5.3s1.4-5.3,4.6-5.3c3.1,0,4.6,2.6,4.6,5.3S787.6,94.3,784.5,94.3z"/>
<path class="st0" d="M807.7,96v-9c0-3.4-1.9-5.5-5.4-5.5c-1.9,0-3.5,0.8-4.3,1.9h-0.6v-1.5h-2.3V96h2.4v-7.6c0-2.5,1.7-4.7,4.2-4.7
	c2.4,0,3.6,1.3,3.6,3.9V96H807.7z"/>
<path class="st8" d="M55,412h2.6l-6.9-20h-4.3l-6.9,20h2.6l2.1-6.1H53L55,412z M48,394.6h1.1l3.1,9H45L48,394.6z"/>
<path class="st8" d="M68.6,397.9h-1.1c-2,0-3.4,0.8-4.1,1.7h-0.6v-1.7h-2.3V412h2.4v-7.1c0-3.1,1.7-4.8,4.5-4.8h1.2V397.9z"/>
<path class="st8" d="M74.2,394.2v-2.6h-2.5v2.6H74.2z M74.1,397.9h-2.4V412h2.4V397.9z"/>
<path class="st8" d="M82.1,397.9v-4.3h-2.4v4.3h-2.4v2.1h2.4v8.1c0,3,1.8,3.9,4.8,3.9h1.1v-2.1h-1c-1.9,0-2.5-0.7-2.5-2.2V400h3.6
	v-2.1H82.1z"/>
<path class="st8" d="M102.1,412v-9c0-3.4-1.9-5.5-5.3-5.5c-1.9,0-3.4,0.8-4.2,1.9h-0.6v-7.8h-2.4V412h2.4v-7.6
	c0-2.5,1.7-4.7,4.2-4.7c2.4,0,3.6,1.3,3.6,3.9v8.5H102.1z"/>
<path class="st8" d="M121.3,397.5c-1.8,0-3.1,0.6-4,1.9h-0.6c-0.8-1.3-2-1.9-3.7-1.9c-1.8,0-2.9,0.6-3.6,1.7h-0.6v-1.4h-2.3V412h2.4
	v-7.8c0-2.5,1.1-4.5,3.5-4.5c1.8,0,2.7,1.2,2.7,3.5v8.8h2.4v-8.3c0-2.4,1.2-4.1,3.4-4.1c1.8,0,2.7,1.1,2.7,3.5v8.9h2.4v-9.1
	C125.9,399.6,124.5,397.5,121.3,397.5z"/>
<path class="st8" d="M142.5,404.1c-0.1-3.5-2.1-6.6-6.3-6.6c-4.3,0-6.8,2.9-6.8,7.3c0,4.3,2.5,7.6,6.9,7.6c3.5,0,5.5-1.8,6-4.3h-2.4
	c-0.4,1.3-1.6,2.2-3.6,2.2c-2.9,0-4.4-2-4.5-5.4h10.8V404.1z M136.2,399.6c2.4,0,3.8,1.5,3.9,3.3h-8.1
	C132.2,401.1,133.6,399.6,136.2,399.6z"/>
<path class="st8" d="M149.5,397.9v-4.3h-2.4v4.3h-2.4v2.1h2.4v8.1c0,3,1.8,3.9,4.8,3.9h1.1v-2.1h-1c-1.9,0-2.5-0.7-2.5-2.2V400h3.6
	v-2.1H149.5z"/>
<path class="st8" d="M159.5,394.2v-2.6H157v2.6H159.5z M159.4,397.9H157V412h2.4V397.9z"/>
<path class="st8" d="M173.6,407.7c-0.4,1.6-1.5,2.5-3.6,2.5c-3.2,0-4.5-2.6-4.5-5.4c0-2.8,1.3-5.3,4.5-5.3c1.9,0,3,1,3.5,2.4h2.4
	c-0.5-2.6-2.5-4.5-5.9-4.5c-4.4,0-6.9,3.2-6.9,7.4c0,4.2,2.5,7.4,6.9,7.4c3.3,0,5.4-1.8,5.9-4.6H173.6z"/>
<path class="st8" d="M182.3,409.7v-6.9h9.2v-2.3h-9.2v-6.2h11.4V392h-13.9v20h14.4v-2.3H182.3z"/>
<path class="st8" d="M207.2,412h2.7l-4.4-7.3l4-6.8h-2.5l-3.3,5.6h-1l-3.2-5.6H197l3.9,6.9l-4.4,7.2h2.6l3.6-5.9h1L207.2,412z"/>
<path class="st8" d="M222.4,407.7c-0.4,1.6-1.5,2.5-3.6,2.5c-3.2,0-4.5-2.6-4.5-5.4c0-2.8,1.3-5.3,4.5-5.3c1.9,0,3,1,3.5,2.4h2.4
	c-0.5-2.6-2.5-4.5-5.9-4.5c-4.4,0-6.9,3.2-6.9,7.4c0,4.2,2.5,7.4,6.9,7.4c3.3,0,5.4-1.8,5.9-4.6H222.4z"/>
<path class="st8" d="M240.6,404.1c-0.1-3.5-2.1-6.6-6.3-6.6c-4.3,0-6.8,2.9-6.8,7.3c0,4.3,2.5,7.6,6.9,7.6c3.5,0,5.5-1.8,6-4.3h-2.4
	c-0.4,1.3-1.6,2.2-3.6,2.2c-2.9,0-4.4-2-4.5-5.4h10.8V404.1z M234.2,399.6c2.4,0,3.8,1.5,3.9,3.3H230
	C230.3,401.1,231.7,399.6,234.2,399.6z"/>
<path class="st8" d="M251.1,399.6c2.8,0,4.3,2.2,4.3,5.3s-1.5,5.3-4.3,5.3c-3.1,0-4.4-2.6-4.4-5.3S247.9,399.6,251.1,399.6z
	 M244.3,397.9v19.7h2.4v-7.1h0.6c0.8,1,2.1,1.9,4.3,1.9c3.9,0,6.2-3.2,6.2-7.4c0-4.2-2.3-7.4-6.2-7.4c-2.2,0-3.6,0.9-4.4,1.9h-0.6
	v-1.5H244.3z"/>
<path class="st8" d="M264.8,397.9v-4.3h-2.4v4.3H260v2.1h2.4v8.1c0,3,1.8,3.9,4.8,3.9h1.1v-2.1h-1c-1.9,0-2.5-0.7-2.5-2.2V400h3.6
	v-2.1H264.8z"/>
<path class="st8" d="M274.8,394.2v-2.6h-2.5v2.6H274.8z M274.7,397.9h-2.4V412h2.4V397.9z"/>
<path class="st8" d="M285.5,397.5c-4.4,0-6.9,3.2-6.9,7.4s2.5,7.4,6.9,7.4c4.4,0,6.9-3.2,6.9-7.4S289.9,397.5,285.5,397.5z
	 M285.5,410.3c-3.1,0-4.6-2.6-4.6-5.3s1.4-5.3,4.6-5.3c3.1,0,4.6,2.6,4.6,5.3S288.6,410.3,285.5,410.3z"/>
<path class="st8" d="M308.7,412v-9c0-3.4-1.9-5.5-5.4-5.5c-1.9,0-3.5,0.8-4.3,1.9h-0.6v-1.5h-2.3V412h2.4v-7.6
	c0-2.5,1.7-4.7,4.2-4.7c2.4,0,3.6,1.3,3.6,3.9v8.5H308.7z"/>
<path class="st8" d="M1095.4,392v16.7h-0.6l-9.3-16.7h-4v20h2.5v-16.7h0.6l9.3,16.7h4v-20H1095.4z"/>
<path class="st8" d="M1102.5,397.9v9c0,3.4,1.9,5.5,5.4,5.5c1.9,0,3.5-0.8,4.2-1.9h0.6v1.5h2.3v-14.1h-2.4v7.6
	c0,2.5-1.7,4.7-4.2,4.7c-2.4,0-3.6-1.3-3.6-3.9v-8.5H1102.5z"/>
<path class="st8" d="M1134.4,397.5c-1.8,0-3.1,0.6-4,1.9h-0.6c-0.8-1.3-2-1.9-3.7-1.9c-1.8,0-2.9,0.6-3.6,1.7h-0.6v-1.4h-2.3V412
	h2.4v-7.8c0-2.5,1.1-4.5,3.5-4.5c1.8,0,2.7,1.2,2.7,3.5v8.8h2.4v-8.3c0-2.4,1.2-4.1,3.4-4.1c1.8,0,2.7,1.1,2.7,3.5v8.9h2.4v-9.1
	C1139.1,399.6,1137.7,397.5,1134.4,397.5z"/>
<path class="st8" d="M1150.8,397.5c-2.2,0-3.6,0.9-4.3,1.9h-0.6v-7.8h-2.4V412h2.3v-1.5h0.6c0.8,1,2.2,1.9,4.4,1.9
	c3.9,0,6.2-3.2,6.2-7.4C1156.9,400.7,1154.7,397.5,1150.8,397.5z M1150.2,410.3c-3.1,0-4.4-2.6-4.4-5.3s1.3-5.3,4.4-5.3
	c2.8,0,4.3,2.2,4.3,5.3S1153.1,410.3,1150.2,410.3z"/>
<path class="st8" d="M1172.9,404.1c-0.1-3.5-2.1-6.6-6.3-6.6c-4.3,0-6.8,2.9-6.8,7.3c0,4.3,2.5,7.6,6.9,7.6c3.5,0,5.5-1.8,6-4.3
	h-2.4c-0.4,1.3-1.6,2.2-3.6,2.2c-2.9,0-4.4-2-4.5-5.4h10.8V404.1z M1166.6,399.6c2.4,0,3.8,1.5,3.9,3.3h-8.1
	C1162.6,401.1,1164,399.6,1166.6,399.6z"/>
<path class="st8" d="M1184.7,397.9h-1.1c-2.1,0-3.4,0.8-4.1,1.7h-0.6v-1.7h-2.3V412h2.4v-7.1c0-3.1,1.7-4.8,4.5-4.8h1.2V397.9z"/>
<path class="st8" d="M1202,394.3V392h-14v20h2.5v-8.9h9.3v-2.3h-9.3v-6.5H1202z"/>
<path class="st8" d="M1210.3,397.5c-4.4,0-6.9,3.2-6.9,7.4s2.5,7.4,6.9,7.4c4.4,0,6.9-3.2,6.9-7.4S1214.7,397.5,1210.3,397.5z
	 M1210.3,410.3c-3.1,0-4.6-2.6-4.6-5.3s1.4-5.3,4.6-5.3c3.1,0,4.6,2.6,4.6,5.3S1213.4,410.3,1210.3,410.3z"/>
<path class="st8" d="M1229.1,397.9h-1.1c-2,0-3.4,0.8-4.1,1.7h-0.6v-1.7h-2.3V412h2.4v-7.1c0-3.1,1.7-4.8,4.5-4.8h1.2V397.9z"/>
<path class="st8" d="M1247,397.5c-1.8,0-3.1,0.6-4,1.9h-0.6c-0.8-1.3-2-1.9-3.7-1.9c-1.8,0-2.9,0.6-3.6,1.7h-0.6v-1.4h-2.3V412h2.4
	v-7.8c0-2.5,1.1-4.5,3.5-4.5c1.8,0,2.7,1.2,2.7,3.5v8.8h2.4v-8.3c0-2.4,1.2-4.1,3.4-4.1c1.8,0,2.7,1.1,2.7,3.5v8.9h2.4v-9.1
	C1251.6,399.6,1250.2,397.5,1247,397.5z"/>
<path class="st8" d="M1265,412h2.2v-9.6c0-3.2-2.3-4.9-5.8-4.9c-3.2,0-5.4,1.5-5.6,4.1h2.4c0.1-1.2,1.2-2,3.3-2
	c2.5,0,3.5,1.2,3.5,2.9v0.6h-4.6c-3.9,0-5.4,2.4-5.4,4.7c0,2.4,1.8,4.6,5.1,4.6c2,0,3.5-0.8,4.4-1.8h0.6V412z M1260.6,410.3
	c-2.1,0-3.3-1-3.3-2.6c0-1.7,1.1-2.7,3.4-2.7h4.2v1.3C1264.9,408.5,1262.9,410.3,1260.6,410.3z"/>
<path class="st8" d="M1274.9,397.9v-4.3h-2.4v4.3h-2.4v2.1h2.4v8.1c0,3,1.8,3.9,4.8,3.9h1.1v-2.1h-1c-1.9,0-2.5-0.7-2.5-2.2V400h3.6
	v-2.1H1274.9z"/>
<path class="st8" d="M1285.1,409.7v-6.9h9.2v-2.3h-9.2v-6.2h11.4V392h-13.9v20h14.4v-2.3H1285.1z"/>
<path class="st8" d="M1310,412h2.7l-4.4-7.3l4-6.8h-2.5l-3.3,5.6h-1l-3.2-5.6h-2.5l3.9,6.9l-4.4,7.2h2.6l3.6-5.9h1L1310,412z"/>
<path class="st8" d="M1325.2,407.7c-0.4,1.6-1.5,2.5-3.6,2.5c-3.2,0-4.5-2.6-4.5-5.4c0-2.8,1.3-5.3,4.5-5.3c1.9,0,3,1,3.5,2.4h2.4
	c-0.5-2.6-2.5-4.5-5.8-4.5c-4.4,0-6.9,3.2-6.9,7.4c0,4.2,2.5,7.4,6.9,7.4c3.3,0,5.4-1.8,5.9-4.6H1325.2z"/>
<path class="st8" d="M1343.4,404.1c-0.1-3.5-2.1-6.6-6.3-6.6c-4.3,0-6.8,2.9-6.8,7.3c0,4.3,2.5,7.6,6.9,7.6c3.5,0,5.5-1.8,6-4.3
	h-2.4c-0.4,1.3-1.6,2.2-3.6,2.2c-2.9,0-4.4-2-4.5-5.4h10.8V404.1z M1337,399.6c2.4,0,3.8,1.5,3.9,3.3h-8.2
	C1333.1,401.1,1334.5,399.6,1337,399.6z"/>
<path class="st8" d="M1353.8,399.6c2.8,0,4.3,2.2,4.3,5.3s-1.5,5.3-4.3,5.3c-3.1,0-4.4-2.6-4.4-5.3S1350.7,399.6,1353.8,399.6z
	 M1347.1,397.9v19.7h2.4v-7.1h0.6c0.8,1,2.1,1.9,4.3,1.9c3.9,0,6.2-3.2,6.2-7.4c0-4.2-2.3-7.4-6.2-7.4c-2.2,0-3.6,0.9-4.4,1.9h-0.6
	v-1.5H1347.1z"/>
<path class="st8" d="M1367.6,397.9v-4.3h-2.4v4.3h-2.4v2.1h2.4v8.1c0,3,1.8,3.9,4.8,3.9h1.1v-2.1h-1c-1.9,0-2.5-0.7-2.5-2.2V400h3.6
	v-2.1H1367.6z"/>
<path class="st8" d="M1377.6,394.2v-2.6h-2.5v2.6H1377.6z M1377.5,397.9h-2.4V412h2.4V397.9z"/>
<path class="st8" d="M1388.2,397.5c-4.4,0-6.9,3.2-6.9,7.4s2.5,7.4,6.9,7.4c4.4,0,7-3.2,7-7.4S1392.6,397.5,1388.2,397.5z
	 M1388.2,410.3c-3.1,0-4.6-2.6-4.6-5.3s1.4-5.3,4.6-5.3c3.1,0,4.6,2.6,4.6,5.3S1391.3,410.3,1388.2,410.3z"/>
<path class="st8" d="M1411.4,412v-9c0-3.4-1.9-5.5-5.4-5.5c-1.9,0-3.5,0.8-4.2,1.9h-0.6v-1.5h-2.3V412h2.4v-7.6
	c0-2.5,1.7-4.7,4.2-4.7c2.4,0,3.6,1.3,3.6,3.9v8.5H1411.4z"/>
<path class="st8" d="M459.1,656c-1.7-0.4-3.4-1-3.4-2.9c0-2.1,2-3.2,4.4-3.2c2.9,0,4.3,1.1,4.8,3.1h2.5c-0.4-3.2-3.1-5.4-7.3-5.4
	c-4.5,0-7,2.4-7,5.5c0,2.9,1.9,4.5,4.8,5.1c1,0.2,2.9,0.6,3.9,0.8c2,0.4,3.4,1.3,3.4,3.4c0,2.3-2.1,3.6-4.9,3.6
	c-2.7,0-5.2-0.9-5.6-3.6h-2.5c0.3,3.5,3.4,5.9,8,5.9c5.1,0,7.6-2.8,7.6-5.9c0-3.4-2-5-5-5.6C461.9,656.6,460,656.2,459.1,656z"/>
<path class="st8" d="M475.2,653.9v-4.3h-2.4v4.3h-2.4v2.1h2.4v8.1c0,3,1.8,3.9,4.8,3.9h1.1v-2.1h-1c-1.9,0-2.5-0.7-2.5-2.2V656h3.6
	v-2.1H475.2z"/>
<path class="st8" d="M490.7,653.9h-1.1c-2,0-3.4,0.8-4.1,1.7h-0.6v-1.7h-2.3V668h2.4v-7.1c0-3.1,1.7-4.8,4.5-4.8h1.2V653.9z"/>
<path class="st8" d="M496.3,650.2v-2.6h-2.5v2.6H496.3z M496.3,653.9h-2.4V668h2.4V653.9z"/>
<path class="st8" d="M513.5,668v-9c0-3.4-1.9-5.5-5.4-5.5c-1.9,0-3.5,0.8-4.3,1.9h-0.6v-1.5h-2.3V668h2.4v-7.6
	c0-2.5,1.7-4.7,4.2-4.7c2.4,0,3.6,1.3,3.6,3.9v8.5H513.5z"/>
<path class="st8" d="M528.2,653.9v1.5h-0.6c-0.8-1-2.1-1.9-4.3-1.9c-3.9,0-6.3,3.1-6.3,7.2c0,4.1,2.4,7.2,6.3,7.2
	c2.1,0,3.5-0.9,4.2-1.9h0.6v1.1c0,2.8-1.3,4.6-4.2,4.6c-2.1,0-3.6-0.6-4-2.3h-2.4c0.4,2.8,2.8,4.3,6.4,4.3c4.1,0,6.6-2.5,6.6-6.5
	v-13.4H528.2z M523.7,665.9c-2.8,0-4.3-2.1-4.3-5.1c0-3.1,1.6-5.2,4.3-5.2c3,0,4.5,2.4,4.5,5.2C528.1,663.4,526.7,665.9,523.7,665.9
	z"/>
<path class="st8" d="M535.5,648v20h2.5v-20H535.5z"/>
<path class="st8" d="M555.6,668v-9c0-3.4-1.9-5.5-5.4-5.5c-1.9,0-3.5,0.8-4.3,1.9h-0.6v-1.5H543V668h2.4v-7.6c0-2.5,1.7-4.7,4.2-4.7
	c2.4,0,3.6,1.3,3.6,3.9v8.5H555.6z"/>
<path class="st8" d="M570.2,647.6v7.8h-0.6c-0.8-1-2.1-1.9-4.3-1.9c-3.9,0-6.2,3.2-6.2,7.4c0,4.2,2.3,7.4,6.2,7.4
	c2.2,0,3.6-0.9,4.4-1.9h0.6v1.5h2.3v-20.4H570.2z M565.8,666.3c-2.8,0-4.3-2.2-4.3-5.3c0-3.1,1.5-5.3,4.3-5.3c3.1,0,4.4,2.6,4.4,5.3
	C570.2,663.7,568.9,666.3,565.8,666.3z"/>
<path class="st8" d="M589.4,660.1c-0.1-3.5-2.1-6.6-6.3-6.6c-4.3,0-6.8,2.9-6.8,7.3c0,4.3,2.5,7.6,6.9,7.6c3.5,0,5.5-1.8,6-4.3h-2.4
	c-0.4,1.3-1.6,2.2-3.6,2.2c-2.9,0-4.4-2-4.5-5.4h10.8V660.1z M583,655.6c2.4,0,3.8,1.5,3.9,3.3h-8.1
	C579.1,657.1,580.5,655.6,583,655.6z"/>
<path class="st8" d="M602.1,668h2.7l-4.4-7.3l4-6.8h-2.5l-3.3,5.6h-1l-3.2-5.6h-2.5l3.9,6.9l-4.4,7.2h2.6l3.6-5.9h1L602.1,668z"/>
<path class="st8" d="M616.7,647.6c-6.1,0-9.3,4.6-9.3,10.4c0,5.7,3.2,10.4,9.3,10.4c6.1,0,9.3-4.6,9.3-10.4
	C626,652.3,622.8,647.6,616.7,647.6z M616.7,666.1c-4.8,0-6.8-3.9-6.8-8.1c0-4.2,2-8.1,6.8-8.1c4.8,0,6.8,3.9,6.8,8.1
	C623.5,662.2,621.4,666.1,616.7,666.1z"/>
<path class="st8" d="M629.6,653.9v9c0,3.4,1.9,5.5,5.4,5.5c1.9,0,3.5-0.8,4.3-1.9h0.6v1.5h2.3v-14.1h-2.4v7.6c0,2.5-1.7,4.7-4.2,4.7
	c-2.4,0-3.6-1.3-3.6-3.9v-8.5H629.6z"/>
<path class="st8" d="M650,653.9v-4.3h-2.4v4.3h-2.4v2.1h2.4v8.1c0,3,1.8,3.9,4.8,3.9h1.1v-2.1h-1c-1.9,0-2.5-0.7-2.5-2.2V656h3.6
	v-2.1H650z"/>
<path class="st8" d="M666.1,647.6c-6.1,0-9.3,4.6-9.3,10.4c0,5.7,3.2,10.4,9.3,10.4c6.1,0,9.3-4.6,9.3-10.4
	C675.4,652.3,672.1,647.6,666.1,647.6z M666.1,666.1c-4.8,0-6.8-3.9-6.8-8.1c0-4.2,2-8.1,6.8-8.1s6.8,3.9,6.8,8.1
	C672.8,662.2,670.8,666.1,666.1,666.1z"/>
<path class="st8" d="M686.3,656v-2.1h-3.8v-1.5c0-1.5,0.6-2.6,2.5-2.6h1.3v-2.1H685c-3.1,0-4.8,1.4-4.8,4.6v1.6h-2.4v2.1h2.4v12h2.4
	v-12H686.3z"/>
<path class="st8" d="M702.7,657.1c1.5-0.8,2.2-2.3,2.2-4.1c0-2.7-2.2-5.1-6.4-5.1h-8.7v20h8.9c4.6,0,6.8-2.4,6.8-5.6
	c0-2-1.1-3.8-2.8-4.6V657.1z M692.3,650.2h6.1c2,0,3.9,0.8,3.9,3.1c0,2.5-1.7,3.2-3.9,3.2h-6.1V650.2z M692.3,665.8v-7.1h6.3
	c2.4,0,4.4,0.9,4.4,3.5c0,2.8-2.1,3.6-4.4,3.6H692.3z"/>
<path class="st8" d="M715.3,653.5c-4.4,0-6.9,3.2-6.9,7.4c0,4.2,2.5,7.4,6.9,7.4c4.4,0,6.9-3.2,6.9-7.4
	C722.2,656.8,719.7,653.5,715.3,653.5z M715.3,666.3c-3.1,0-4.6-2.6-4.6-5.3c0-2.8,1.4-5.3,4.6-5.3c3.1,0,4.6,2.6,4.6,5.3
	C719.8,663.7,718.4,666.3,715.3,666.3z"/>
<path class="st8" d="M725.7,653.9v9c0,3.4,1.9,5.5,5.4,5.5c1.9,0,3.5-0.8,4.3-1.9h0.6v1.5h2.3v-14.1h-2.4v7.6c0,2.5-1.7,4.7-4.2,4.7
	c-2.4,0-3.6-1.3-3.6-3.9v-8.5H725.7z"/>
<path class="st8" d="M755.4,668v-9c0-3.4-1.9-5.5-5.4-5.5c-1.9,0-3.5,0.8-4.3,1.9h-0.6v-1.5h-2.3V668h2.4v-7.6
	c0-2.5,1.7-4.7,4.2-4.7c2.4,0,3.6,1.3,3.6,3.9v8.5H755.4z"/>
<path class="st8" d="M770,647.6v7.8h-0.6c-0.8-1-2.1-1.9-4.3-1.9c-3.9,0-6.2,3.2-6.2,7.4c0,4.2,2.3,7.4,6.2,7.4
	c2.2,0,3.6-0.9,4.4-1.9h0.6v1.5h2.3v-20.4H770z M765.6,666.3c-2.8,0-4.3-2.2-4.3-5.3c0-3.1,1.5-5.3,4.3-5.3c3.1,0,4.4,2.6,4.4,5.3
	C770,663.7,768.7,666.3,765.6,666.3z"/>
<path class="st8" d="M780.9,659.2c-1.4-0.2-2.1-0.6-2.1-1.7c0-1.2,1.2-1.9,3.1-1.9c1.8,0,3.1,0.6,3.3,2h2.4c-0.3-2.5-2.2-4-5.6-4
	c-3.8,0-5.6,1.8-5.6,4.2c0,2.1,1.4,3.2,3.4,3.6l3.2,0.5c1.8,0.3,2.6,1,2.6,2.2c0,1.5-1.4,2.3-3.5,2.3s-3.5-0.8-3.8-2.4h-2.4
	c0.3,2.7,2.3,4.5,6.3,4.5c3.8,0,5.8-2.1,5.8-4.4c0-2.6-1.6-3.8-4-4.3l-1.6-0.3L780.9,659.2z"/>
<path class="st8" d="M794.1,665.7v-6.9h9.2v-2.3h-9.2v-6.2h11.4V648h-13.9v20h14.4v-2.3H794.1z"/>
<path class="st8" d="M819,668h2.7l-4.4-7.3l4-6.8h-2.5l-3.3,5.6h-1l-3.2-5.6h-2.5l3.9,6.9l-4.4,7.2h2.6l3.6-5.9h1L819,668z"/>
<path class="st8" d="M834.2,663.7c-0.4,1.6-1.5,2.5-3.6,2.5c-3.2,0-4.5-2.6-4.5-5.4c0-2.8,1.3-5.3,4.5-5.3c1.9,0,3,1,3.5,2.4h2.4
	c-0.5-2.6-2.5-4.5-5.9-4.5c-4.4,0-6.9,3.2-6.9,7.4c0,4.2,2.5,7.4,6.9,7.4c3.3,0,5.4-1.8,5.9-4.6H834.2z"/>
<path class="st8" d="M852.4,660.1c-0.1-3.5-2.1-6.6-6.3-6.6c-4.3,0-6.8,2.9-6.8,7.3c0,4.3,2.5,7.6,6.9,7.6c3.5,0,5.5-1.8,6-4.3h-2.4
	c-0.4,1.3-1.6,2.2-3.6,2.2c-2.9,0-4.4-2-4.5-5.4h10.8V660.1z M846,655.6c2.4,0,3.8,1.5,3.9,3.3h-8.1
	C842.1,657.1,843.5,655.6,846,655.6z"/>
<path class="st8" d="M862.8,655.6c2.8,0,4.3,2.2,4.3,5.3c0,3.1-1.5,5.3-4.3,5.3c-3.1,0-4.4-2.6-4.4-5.3
	C858.4,658.2,859.7,655.6,862.8,655.6z M856.1,653.9v19.7h2.4v-7.1h0.6c0.8,1,2.1,1.9,4.3,1.9c3.9,0,6.2-3.2,6.2-7.4
	c0-4.2-2.3-7.4-6.2-7.4c-2.2,0-3.6,0.9-4.4,1.9h-0.6v-1.5H856.1z"/>
<path class="st8" d="M876.6,653.9v-4.3h-2.4v4.3h-2.4v2.1h2.4v8.1c0,3,1.8,3.9,4.8,3.9h1.1v-2.1h-1c-1.9,0-2.5-0.7-2.5-2.2V656h3.6
	v-2.1H876.6z"/>
<path class="st8" d="M886.6,650.2v-2.6H884v2.6H886.6z M886.5,653.9h-2.4V668h2.4V653.9z"/>
<path class="st8" d="M897.2,653.5c-4.4,0-6.9,3.2-6.9,7.4c0,4.2,2.5,7.4,6.9,7.4c4.4,0,6.9-3.2,6.9-7.4
	C904.2,656.8,901.6,653.5,897.2,653.5z M897.2,666.3c-3.1,0-4.6-2.6-4.6-5.3c0-2.8,1.4-5.3,4.6-5.3c3.1,0,4.6,2.6,4.6,5.3
	C901.8,663.7,900.3,666.3,897.2,666.3z"/>
<path class="st8" d="M920.4,668v-9c0-3.4-1.9-5.5-5.4-5.5c-1.9,0-3.5,0.8-4.3,1.9h-0.6v-1.5h-2.3V668h2.4v-7.6
	c0-2.5,1.7-4.7,4.2-4.7c2.4,0,3.6,1.3,3.6,3.9v8.5H920.4z"/>
<path class="st8" d="M494.7,392v20h2.5v-20H494.7z"/>
<path class="st8" d="M514.8,412v-9c0-3.4-1.9-5.5-5.4-5.5c-1.9,0-3.5,0.8-4.3,1.9h-0.6v-1.5h-2.3V412h2.4v-7.6
	c0-2.5,1.7-4.7,4.2-4.7c2.4,0,3.6,1.3,3.6,3.9v8.5H514.8z"/>
<path class="st8" d="M529.4,391.6v7.8h-0.6c-0.8-1-2.1-1.9-4.3-1.9c-3.9,0-6.2,3.2-6.2,7.4c0,4.2,2.3,7.4,6.2,7.4
	c2.2,0,3.6-0.9,4.4-1.9h0.6v1.5h2.3v-20.4H529.4z M525,410.3c-2.8,0-4.3-2.2-4.3-5.3s1.5-5.3,4.3-5.3c3.1,0,4.4,2.6,4.4,5.3
	S528.1,410.3,525,410.3z"/>
<path class="st8" d="M548.6,404.1c-0.1-3.5-2.1-6.6-6.3-6.6c-4.3,0-6.8,2.9-6.8,7.3c0,4.3,2.5,7.6,6.9,7.6c3.5,0,5.5-1.8,6-4.3H546
	c-0.4,1.3-1.6,2.2-3.6,2.2c-2.9,0-4.4-2-4.5-5.4h10.8V404.1z M542.3,399.6c2.4,0,3.8,1.5,3.9,3.3H538
	C538.3,401.1,539.7,399.6,542.3,399.6z"/>
<path class="st8" d="M561.3,412h2.7l-4.4-7.3l4-6.8h-2.5l-3.3,5.6h-1l-3.2-5.6h-2.5l3.9,6.9l-4.4,7.2h2.6l3.6-5.9h1L561.3,412z"/>
<path class="st8" d="M575.9,391.6c-6.1,0-9.3,4.6-9.3,10.4s3.2,10.4,9.3,10.4c6.1,0,9.3-4.6,9.3-10.4S582,391.6,575.9,391.6z
	 M575.9,410.1c-4.8,0-6.8-3.9-6.8-8.1s2-8.1,6.8-8.1c4.8,0,6.8,3.9,6.8,8.1S580.7,410.1,575.9,410.1z"/>
<path class="st8" d="M588.9,397.9v9c0,3.4,1.9,5.5,5.4,5.5c1.9,0,3.5-0.8,4.3-1.9h0.6v1.5h2.3v-14.1H599v7.6c0,2.5-1.7,4.7-4.2,4.7
	c-2.4,0-3.6-1.3-3.6-3.9v-8.5H588.9z"/>
<path class="st8" d="M609.3,397.9v-4.3h-2.4v4.3h-2.4v2.1h2.4v8.1c0,3,1.8,3.9,4.8,3.9h1.1v-2.1h-1c-1.9,0-2.5-0.7-2.5-2.2V400h3.6
	v-2.1H609.3z"/>
<path class="st8" d="M625.3,391.6c-6.1,0-9.3,4.6-9.3,10.4s3.2,10.4,9.3,10.4c6.1,0,9.3-4.6,9.3-10.4S631.4,391.6,625.3,391.6z
	 M625.3,410.1c-4.8,0-6.8-3.9-6.8-8.1s2-8.1,6.8-8.1c4.8,0,6.8,3.9,6.8,8.1S630.1,410.1,625.3,410.1z"/>
<path class="st8" d="M645.6,400v-2.1h-3.8v-1.5c0-1.5,0.6-2.6,2.5-2.6h1.3v-2.1h-1.4c-3.1,0-4.8,1.4-4.8,4.6v1.6h-2.4v2.1h2.4v12
	h2.4v-12H645.6z"/>
<path class="st8" d="M661.9,401.1c1.5-0.8,2.2-2.3,2.2-4.1c0-2.7-2.2-5.1-6.4-5.1H649v20h8.9c4.6,0,6.8-2.4,6.8-5.6
	c0-2-1.1-3.8-2.8-4.6V401.1z M651.6,394.2h6.1c2,0,3.9,0.8,3.9,3.1c0,2.5-1.7,3.2-3.9,3.2h-6.1V394.2z M651.6,409.8v-7.1h6.3
	c2.4,0,4.4,0.9,4.4,3.5c0,2.8-2.1,3.6-4.4,3.6H651.6z"/>
<path class="st8" d="M674.5,397.5c-4.4,0-6.9,3.2-6.9,7.4s2.5,7.4,6.9,7.4c4.4,0,6.9-3.2,6.9-7.4S678.9,397.5,674.5,397.5z
	 M674.5,410.3c-3.1,0-4.6-2.6-4.6-5.3s1.4-5.3,4.6-5.3c3.1,0,4.6,2.6,4.6,5.3S677.6,410.3,674.5,410.3z"/>
<path class="st8" d="M684.9,397.9v9c0,3.4,1.9,5.5,5.4,5.5c1.9,0,3.5-0.8,4.3-1.9h0.6v1.5h2.3v-14.1h-2.4v7.6c0,2.5-1.7,4.7-4.2,4.7
	c-2.4,0-3.6-1.3-3.6-3.9v-8.5H684.9z"/>
<path class="st8" d="M714.6,412v-9c0-3.4-1.9-5.5-5.4-5.5c-1.9,0-3.5,0.8-4.3,1.9h-0.6v-1.5h-2.3V412h2.4v-7.6
	c0-2.5,1.7-4.7,4.2-4.7c2.4,0,3.6,1.3,3.6,3.9v8.5H714.6z"/>
<path class="st8" d="M729.2,391.6v7.8h-0.6c-0.8-1-2.1-1.9-4.3-1.9c-3.9,0-6.2,3.2-6.2,7.4c0,4.2,2.3,7.4,6.2,7.4
	c2.2,0,3.6-0.9,4.4-1.9h0.6v1.5h2.3v-20.4H729.2z M724.8,410.3c-2.8,0-4.3-2.2-4.3-5.3s1.5-5.3,4.3-5.3c3.1,0,4.4,2.6,4.4,5.3
	S727.9,410.3,724.8,410.3z"/>
<path class="st8" d="M740.1,403.2c-1.4-0.2-2.1-0.6-2.1-1.7c0-1.2,1.2-1.9,3.1-1.9c1.8,0,3.1,0.6,3.3,2h2.4c-0.3-2.5-2.2-4-5.6-4
	c-3.8,0-5.6,1.8-5.6,4.2c0,2.1,1.4,3.2,3.4,3.6l3.2,0.5c1.8,0.3,2.6,1,2.6,2.2c0,1.5-1.4,2.3-3.5,2.3s-3.5-0.8-3.8-2.4H735
	c0.3,2.7,2.3,4.5,6.3,4.5c3.8,0,5.8-2.1,5.8-4.4c0-2.6-1.6-3.8-4-4.3l-1.6-0.3L740.1,403.2z"/>
<path class="st8" d="M753.3,409.7v-6.9h9.2v-2.3h-9.2v-6.2h11.4V392h-13.9v20h14.4v-2.3H753.3z"/>
<path class="st8" d="M778.3,412h2.7l-4.4-7.3l4-6.8h-2.5l-3.3,5.6h-1l-3.2-5.6H768l3.9,6.9l-4.4,7.2h2.6l3.6-5.9h1L778.3,412z"/>
<path class="st8" d="M793.4,407.7c-0.4,1.6-1.5,2.5-3.6,2.5c-3.2,0-4.5-2.6-4.5-5.4c0-2.8,1.3-5.3,4.5-5.3c1.9,0,3,1,3.5,2.4h2.4
	c-0.5-2.6-2.5-4.5-5.9-4.5c-4.4,0-6.9,3.2-6.9,7.4c0,4.2,2.5,7.4,6.9,7.4c3.3,0,5.4-1.8,5.9-4.6H793.4z"/>
<path class="st8" d="M811.6,404.1c-0.1-3.5-2.1-6.6-6.3-6.6c-4.3,0-6.8,2.9-6.8,7.3c0,4.3,2.5,7.6,6.9,7.6c3.5,0,5.5-1.8,6-4.3h-2.4
	c-0.4,1.3-1.6,2.2-3.6,2.2c-2.9,0-4.4-2-4.5-5.4h10.8V404.1z M805.2,399.6c2.4,0,3.8,1.5,3.9,3.3H801
	C801.3,401.1,802.7,399.6,805.2,399.6z"/>
<path class="st8" d="M822.1,399.6c2.8,0,4.3,2.2,4.3,5.3s-1.5,5.3-4.3,5.3c-3.1,0-4.4-2.6-4.4-5.3S819,399.6,822.1,399.6z
	 M815.3,397.9v19.7h2.4v-7.1h0.6c0.8,1,2.1,1.9,4.3,1.9c3.9,0,6.2-3.2,6.2-7.4c0-4.2-2.3-7.4-6.2-7.4c-2.2,0-3.6,0.9-4.4,1.9h-0.6
	v-1.5H815.3z"/>
<path class="st8" d="M835.8,397.9v-4.3h-2.4v4.3H831v2.1h2.4v8.1c0,3,1.8,3.9,4.8,3.9h1.1v-2.1h-1c-1.9,0-2.5-0.7-2.5-2.2V400h3.6
	v-2.1H835.8z"/>
<path class="st8" d="M845.8,394.2v-2.6h-2.5v2.6H845.8z M845.7,397.9h-2.4V412h2.4V397.9z"/>
<path class="st8" d="M856.5,397.5c-4.4,0-6.9,3.2-6.9,7.4s2.5,7.4,6.9,7.4c4.4,0,6.9-3.2,6.9-7.4S860.9,397.5,856.5,397.5z
	 M856.5,410.3c-3.1,0-4.6-2.6-4.6-5.3s1.4-5.3,4.6-5.3c3.1,0,4.6,2.6,4.6,5.3S859.6,410.3,856.5,410.3z"/>
<path class="st8" d="M879.7,412v-9c0-3.4-1.9-5.5-5.4-5.5c-1.9,0-3.5,0.8-4.3,1.9h-0.6v-1.5h-2.3V412h2.4v-7.6
	c0-2.5,1.7-4.7,4.2-4.7c2.4,0,3.6,1.3,3.6,3.9v8.5H879.7z"/>
</svg>
