<?xml version="1.0" encoding="utf-8"?>
<!-- Generator: Adobe Illustrator 20.1.0, SVG Export Plug-In . SVG Version: 6.00 Build 0)  -->
<svg version="1.1" id="Layer_1" xmlns="http://www.w3.org/2000/svg" xmlns:xlink="http://www.w3.org/1999/xlink" x="0px" y="0px"
	 viewBox="0 0 1600 452" style="enable-background:new 0 0 1600 452;" xml:space="preserve">
<style type="text/css">
	.st0{fill:#082E51;}
	.st1{opacity:0.12;fill:#007BFF;enable-background:new    ;}
	.st2{fill:#007BFF;}
	.st3{fill:#FFFFFF;}
	.st4{fill:none;stroke:#007BFF;stroke-width:2;stroke-linecap:round;stroke-linejoin:round;stroke-miterlimit:10;}
</style>
<g>
	<path class="st0" d="M465.7,308.7v58H34.1v-58H465.7 M466.7,307.7H33.1v60h433.6V307.7L466.7,307.7z"/>
</g>
<g>
	<path class="st0" d="M1011.5,308.7v58H589v-58H1011.5 M1012.5,307.7H588v60h424.5V307.7L1012.5,307.7z"/>
</g>
<g>
	<path class="st0" d="M1555.3,308.7v58h-422.5v-58H1555.3 M1556.3,307.7h-424.5v60h424.5V307.7L1556.3,307.7z"/>
</g>
<rect x="121.6" y="214.7" class="st1" width="256.5" height="93"/>
<rect x="672" y="214.7" class="st1" width="256.5" height="93"/>
<rect x="1215.8" y="214.7" class="st1" width="256.5" height="93"/>
<rect x="1215.8" y="121.7" class="st2" width="256.5" height="93"/>
<g>
	<g>
		<path class="st0" d="M401,36.8v2.1h0.8c1.1-1.3,2.9-2.5,6-2.5c5.3,0,8.4,4.4,8.4,10.1c0,5.8-3.1,10.1-8.4,10.1
			c-3,0-4.8-1.2-5.9-2.5h-0.8v9.7h-3.2v-27H401z M401.1,46.4c0,3.8,1.7,7.3,6,7.3c3.8,0,5.9-3,5.9-7.3s-2.1-7.3-5.9-7.3
			C402.9,39.1,401.1,42.6,401.1,46.4z"/>
	</g>
	<g>
		<path class="st0" d="M439,46.4c0,5.7-3.5,10.1-9.4,10.1c-6,0-9.4-4.4-9.4-10.1s3.4-10.1,9.4-10.1C435.5,36.3,439,40.7,439,46.4z
			 M435.7,46.4c0-3.8-2-7.3-6.2-7.3c-4.3,0-6.2,3.5-6.2,7.3s1.9,7.3,6.2,7.3C433.8,53.7,435.7,50.2,435.7,46.4z"/>
	</g>
	<g>
		<path class="st0" d="M447.1,36.8v2.1h0.8c1.1-1.3,2.9-2.5,6-2.5c5.3,0,8.4,4.4,8.4,10.1c0,5.8-3.1,10.1-8.4,10.1
			c-3,0-4.8-1.2-5.9-2.5h-0.8v9.7H444v-27H447.1z M447.2,46.4c0,3.8,1.7,7.3,6,7.3c3.8,0,5.9-3,5.9-7.3s-2.1-7.3-5.9-7.3
			C449,39.1,447.2,42.6,447.2,46.4z"/>
	</g>
</g>
<g>
	<g>
		<path class="st0" d="M242.5,410.6h6.3v-20.1H248l-5.6,3.8v-3.5l5.5-3.8h4.1v23.6h5.8v3h-15.5v-3H242.5z"/>
	</g>
</g>
<g>
	<g>
		<path class="st0" d="M791.2,394.3c0.3-5.3,4.1-7.9,8.9-7.9c5,0,8.6,2.8,8.6,8.1c0,3.6-2.7,7-5.9,9.6l-6.7,5.6v0.8h13.4v3h-18.3
			v-3.8l3.9-3.2c2.1-1.7,4.6-3.8,6-5.1c1.8-1.6,4.1-3.8,4.1-7c0-3.3-2.1-5.1-5.4-5.1c-3,0-5.1,1.6-5.4,4.9h-3.2L791.2,394.3
			L791.2,394.3z"/>
	</g>
</g>
<g>
	<g>
		<path class="st0" d="M1126.9,36.8v2.1h0.8c1.1-1.3,2.9-2.5,6-2.5c5.3,0,8.4,4.4,8.4,10.1c0,5.8-3.1,10.1-8.4,10.1
			c-3,0-4.8-1.2-5.9-2.5h-0.8v9.7h-3.2v-27H1126.9z M1127,46.4c0,3.8,1.7,7.3,6,7.3c3.8,0,5.9-3,5.9-7.3s-2.1-7.3-5.9-7.3
			C1128.7,39.1,1127,42.6,1127,46.4z"/>
	</g>
	<g>
		<path class="st0" d="M1150.1,36.8v11.5c0,3.5,1.6,5.3,4.9,5.3c3.4,0,5.7-2.9,5.7-6.4V36.8h3.2V56h-3.1v-2.1h-0.8
			c-1.1,1.5-3.2,2.5-5.8,2.5c-4.7,0-7.3-2.9-7.3-7.5V36.8H1150.1z"/>
	</g>
	<g>
		<path class="st0" d="M1177.3,44.3l2.2,0.3c3.3,0.6,5.5,2.3,5.5,5.8c0,3.2-2.7,6-7.9,6c-5.4,0-8.1-2.4-8.5-6h3.3
			c0.3,2.2,2.2,3.2,5.1,3.2s4.8-1,4.8-3.1c0-1.7-1.1-2.6-3.5-3l-4.3-0.7c-2.7-0.5-4.6-1.9-4.6-4.8c0-3.2,2.4-5.7,7.6-5.7
			c4.5,0,7.1,2.1,7.6,5.5h-3.2c-0.3-1.8-2.1-2.7-4.5-2.7c-2.5,0-4.1,0.9-4.1,2.5c0,1.5,1,2.1,2.9,2.4L1177.3,44.3z"/>
	</g>
	<g>
		<path class="st0" d="M1203.4,56V44.5c0-3.5-1.6-5.3-4.9-5.3c-3.4,0-5.7,3-5.7,6.4V56h-3.2V28.4h3.2v10.5h0.8
			c1-1.5,3.1-2.5,5.7-2.5c4.7,0,7.3,2.9,7.3,7.5V56H1203.4z"/>
	</g>
</g>
<g>
	<g>
		<path class="st3" d="M1281,151.8V179h-5.4l-12.6-22.7h-0.8V179h-3.3v-27.1h5.4l12.6,22.7h0.8v-22.7L1281,151.8L1281,151.8z"/>
	</g>
	<g>
		<path class="st3" d="M1304.2,169.4h-14.6c0.1,4.6,2.2,7.3,6.1,7.3c2.7,0,4.3-1.1,4.9-3h3.3c-0.6,3.3-3.4,5.8-8.1,5.8
			c-6,0-9.3-4.4-9.3-10.3s3.4-9.9,9.2-9.9c5.7,0,8.4,4.2,8.5,8.9V169.4z M1289.8,166.7h11.1c-0.2-2.4-2.1-4.5-5.3-4.5
			C1292.1,162.1,1290.2,164.2,1289.8,166.7z"/>
	</g>
	<g>
		<path class="st3" d="M1321.4,166.1l3.2,9.5h0.8l2.2-15.7h3.1L1328,179h-4.9l-3.3-9.7h-0.8l-3.3,9.7h-5l-2.7-19.1h3.1l2.3,15.7h0.8
			l3.3-9.5L1321.4,166.1L1321.4,166.1z"/>
	</g>
	<g>
		<path class="st3" d="M1364.4,169.4c0,5.7-3.1,10.1-8.4,10.1c-3,0-4.9-1.2-6-2.5h-0.8v2.1h-3.1v-27.6h3.2V162h0.8
			c1-1.4,2.8-2.5,5.9-2.5C1361.2,159.3,1364.4,163.6,1364.4,169.4z M1361.1,169.4c0-4.3-2.1-7.3-5.9-7.3c-4.3,0-6,3.5-6,7.3
			s1.7,7.3,6,7.3C1359.1,176.6,1361.1,173.6,1361.1,169.4z"/>
	</g>
	<g>
		<path class="st3" d="M1387.1,169.4c0,5.7-3.5,10.1-9.4,10.1c-6,0-9.4-4.4-9.4-10.1s3.4-10.1,9.4-10.1
			C1383.6,159.3,1387.1,163.7,1387.1,169.4z M1383.9,169.4c0-3.8-2-7.3-6.2-7.3c-4.3,0-6.2,3.5-6.2,7.3s1.9,7.3,6.2,7.3
			C1381.9,176.6,1383.9,173.2,1383.9,169.4z"/>
	</g>
	<g>
		<path class="st3" d="M1409.8,169.4c0,5.7-3.5,10.1-9.4,10.1c-6,0-9.4-4.4-9.4-10.1s3.4-10.1,9.4-10.1
			C1406.4,159.3,1409.8,163.7,1409.8,169.4z M1406.6,169.4c0-3.8-2-7.3-6.2-7.3c-4.3,0-6.2,3.5-6.2,7.3s1.9,7.3,6.2,7.3
			C1404.6,176.6,1406.6,173.2,1406.6,169.4z"/>
	</g>
	<g>
		<path class="st3" d="M1428.8,179l-5.5-10.4h-0.8l-4.4,4.9v5.5h-3.2v-27.6h3.2v18.1l9-9.6h3.8l-5.5,5.9l6.8,13.3L1428.8,179
			L1428.8,179z"/>
	</g>
</g>
<g>
	<g>
		<path class="st0" d="M1290.1,259.9c0,7.8-4.4,14.1-12.7,14.1c-8.3,0-12.7-6.3-12.7-14.1c0-7.8,4.4-14.1,12.7-14.1
			C1285.7,245.8,1290.1,252.1,1290.1,259.9z M1286.7,259.9c0-5.7-2.7-10.9-9.2-10.9s-9.2,5.3-9.2,10.9c0,5.6,2.7,10.9,9.2,10.9
			S1286.7,265.6,1286.7,259.9z"/>
	</g>
	<g>
		<path class="st0" d="M1298.6,245.8v27.6h-3.2v-27.6L1298.6,245.8L1298.6,245.8z"/>
	</g>
	<g>
		<path class="st0" d="M1321.9,245.8v27.6h-3.1v-2.1h-0.8c-1.1,1.3-2.9,2.5-6,2.5c-5.3,0-8.4-4.4-8.4-10.1c0-5.8,3.1-10.1,8.4-10.1
			c3,0,4.8,1.2,5.9,2.5h0.8v-10.5h3.2V245.8z M1318.7,263.9c0-3.8-1.7-7.3-6-7.3c-3.8,0-5.9,3-5.9,7.3s2.1,7.3,5.9,7.3
			C1317,271.1,1318.7,267.6,1318.7,263.9z"/>
	</g>
	<g>
		<path class="st0" d="M1357,263.9c0,5.7-3.1,10.1-8.4,10.1c-3,0-4.9-1.2-6-2.5h-0.8v2.1h-3.1V246h3.2v10.5h0.8
			c1-1.4,2.8-2.5,5.9-2.5C1353.9,253.8,1357,258.1,1357,263.9z M1353.8,263.9c0-4.3-2.1-7.3-5.9-7.3c-4.3,0-6,3.5-6,7.3
			s1.7,7.3,6,7.3C1351.8,271.1,1353.8,268.1,1353.8,263.9z"/>
	</g>
	<g>
		<path class="st0" d="M1379.8,263.9c0,5.7-3.5,10.1-9.4,10.1c-6,0-9.4-4.4-9.4-10.1s3.4-10.1,9.4-10.1
			C1376.3,253.8,1379.8,258.2,1379.8,263.9z M1376.5,263.9c0-3.8-2-7.3-6.2-7.3c-4.3,0-6.2,3.5-6.2,7.3s1.9,7.3,6.2,7.3
			C1374.5,271.1,1376.5,267.6,1376.5,263.9z"/>
	</g>
	<g>
		<path class="st0" d="M1402.5,263.9c0,5.7-3.5,10.1-9.4,10.1c-6,0-9.4-4.4-9.4-10.1s3.4-10.1,9.4-10.1
			C1399,253.8,1402.5,258.2,1402.5,263.9z M1399.2,263.9c0-3.8-2-7.3-6.2-7.3c-4.3,0-6.2,3.5-6.2,7.3s1.9,7.3,6.2,7.3
			C1397.3,271.1,1399.2,267.6,1399.2,263.9z"/>
	</g>
	<g>
		<path class="st0" d="M1421.5,273.5l-5.5-10.4h-0.8l-4.4,4.9v5.5h-3.2v-27.6h3.2V264l9-9.6h3.8l-5.5,5.9l6.8,13.3L1421.5,273.5
			L1421.5,273.5z"/>
	</g>
</g>
<g>
	<g>
		<path class="st0" d="M1351.8,381v3.7l-6.6,5.7v0.8c4.6,0.1,7.9,3,7.9,8.1c0,5.5-4,8.8-9.4,8.8s-9-3.4-9.3-7.9h3.3c0.3,3,2.8,5,6,5
			c3.6,0,6-2.2,6-5.8c0-3.5-2.1-5.7-6-5.7c-0.9,0-1.7,0.1-2.3,0.2v-3.5l6.5-5.6V384h-11.6v-3H1351.8z"/>
	</g>
</g>
<g>
	<g>
		<path class="st0" d="M746.3,259.9c0,7.8-4.4,14.1-12.7,14.1s-12.7-6.3-12.7-14.1c0-7.8,4.4-14.1,12.7-14.1
			C741.9,245.8,746.3,252.1,746.3,259.9z M742.8,259.9c0-5.7-2.7-10.9-9.2-10.9s-9.2,5.3-9.2,10.9c0,5.6,2.7,10.9,9.2,10.9
			S742.8,265.6,742.8,259.9z"/>
	</g>
	<g>
		<path class="st0" d="M754.7,245.8v27.6h-3.2v-27.6L754.7,245.8L754.7,245.8z"/>
	</g>
	<g>
		<path class="st0" d="M778.1,245.8v27.6H775v-2.1h-0.8c-1.1,1.3-2.9,2.5-6,2.5c-5.3,0-8.4-4.4-8.4-10.1c0-5.8,3.1-10.1,8.4-10.1
			c3,0,4.8,1.2,5.9,2.5h0.8v-10.5h3.2L778.1,245.8L778.1,245.8z M774.9,263.9c0-3.8-1.7-7.3-6-7.3c-3.8,0-5.9,3-5.9,7.3
			s2.1,7.3,5.9,7.3C773.2,271.1,774.9,267.6,774.9,263.9z"/>
	</g>
	<g>
		<path class="st0" d="M813.2,263.9c0,5.7-3.1,10.1-8.4,10.1c-3,0-4.9-1.2-6-2.5H798v2.1h-3.1V246h3.2v10.5h0.8
			c1-1.4,2.8-2.5,5.9-2.5C810.1,253.8,813.2,258.1,813.2,263.9z M810,263.9c0-4.3-2.1-7.3-5.9-7.3c-4.3,0-6,3.5-6,7.3s1.7,7.3,6,7.3
			C807.9,271.1,810,268.1,810,263.9z"/>
	</g>
	<g>
		<path class="st0" d="M835.9,263.9c0,5.7-3.5,10.1-9.4,10.1c-6,0-9.4-4.4-9.4-10.1s3.4-10.1,9.4-10.1
			C832.5,253.8,835.9,258.2,835.9,263.9z M832.7,263.9c0-3.8-2-7.3-6.2-7.3c-4.3,0-6.2,3.5-6.2,7.3s1.9,7.3,6.2,7.3
			C830.7,271.1,832.7,267.6,832.7,263.9z"/>
	</g>
	<g>
		<path class="st0" d="M858.7,263.9c0,5.7-3.5,10.1-9.4,10.1c-6,0-9.4-4.4-9.4-10.1s3.4-10.1,9.4-10.1
			C855.2,253.8,858.7,258.2,858.7,263.9z M855.4,263.9c0-3.8-2-7.3-6.2-7.3c-4.3,0-6.2,3.5-6.2,7.3s1.9,7.3,6.2,7.3
			C853.5,271.1,855.4,267.6,855.4,263.9z"/>
	</g>
	<g>
		<path class="st0" d="M877.7,273.5l-5.5-10.4h-0.8L867,268v5.5h-3.2v-27.6h3.2V264l9-9.6h3.8l-5.5,5.9l6.8,13.3L877.7,273.5
			L877.7,273.5z"/>
	</g>
</g>
<g>
	<g>
		<path class="st0" d="M195.9,259.9c0,7.8-4.4,14.1-12.7,14.1s-12.7-6.3-12.7-14.1c0-7.8,4.4-14.1,12.7-14.1
			C191.5,245.8,195.9,252.1,195.9,259.9z M192.4,259.9c0-5.7-2.7-10.9-9.2-10.9s-9.2,5.3-9.2,10.9c0,5.6,2.7,10.9,9.2,10.9
			S192.4,265.6,192.4,259.9z"/>
	</g>
	<g>
		<path class="st0" d="M204.3,245.8v27.6h-3.2v-27.6L204.3,245.8L204.3,245.8z"/>
	</g>
	<g>
		<path class="st0" d="M227.7,245.8v27.6h-3.1v-2.1h-0.8c-1.1,1.3-2.9,2.5-6,2.5c-5.3,0-8.4-4.4-8.4-10.1c0-5.8,3.1-10.1,8.4-10.1
			c3,0,4.8,1.2,5.9,2.5h0.8v-10.5h3.2L227.7,245.8L227.7,245.8z M224.5,263.9c0-3.8-1.7-7.3-6-7.3c-3.8,0-5.9,3-5.9,7.3
			s2.1,7.3,5.9,7.3C222.8,271.1,224.5,267.6,224.5,263.9z"/>
	</g>
	<g>
		<path class="st0" d="M262.8,263.9c0,5.7-3.1,10.1-8.4,10.1c-3,0-4.9-1.2-6-2.5h-0.8v2.1h-3.1V246h3.2v10.5h0.8
			c1-1.4,2.8-2.5,5.9-2.5C259.7,253.8,262.8,258.1,262.8,263.9z M259.6,263.9c0-4.3-2.1-7.3-5.9-7.3c-4.3,0-6,3.5-6,7.3
			s1.7,7.3,6,7.3C257.5,271.1,259.6,268.1,259.6,263.9z"/>
	</g>
	<g>
		<path class="st0" d="M285.5,263.9c0,5.7-3.5,10.1-9.4,10.1c-6,0-9.4-4.4-9.4-10.1s3.4-10.1,9.4-10.1
			C282.1,253.8,285.5,258.2,285.5,263.9z M282.3,263.9c0-3.8-2-7.3-6.2-7.3c-4.3,0-6.2,3.5-6.2,7.3s1.9,7.3,6.2,7.3
			C280.3,271.1,282.3,267.6,282.3,263.9z"/>
	</g>
	<g>
		<path class="st0" d="M308.3,263.9c0,5.7-3.5,10.1-9.4,10.1c-6,0-9.4-4.4-9.4-10.1s3.4-10.1,9.4-10.1
			C304.8,253.8,308.3,258.2,308.3,263.9z M305,263.9c0-3.8-2-7.3-6.2-7.3c-4.3,0-6.2,3.5-6.2,7.3s1.9,7.3,6.2,7.3
			C303.1,271.1,305,267.6,305,263.9z"/>
	</g>
	<g>
		<path class="st0" d="M327.3,273.5l-5.5-10.4H321l-4.4,4.9v5.5h-3.2v-27.6h3.2V264l9-9.6h3.8l-5.5,5.9l6.8,13.3L327.3,273.5
			L327.3,273.5z"/>
	</g>
</g>
<g>
	<g>
		<path class="st0" d="M224.3,165.1c2.3,1.1,3.8,3.5,3.8,6.3c0,4.3-3,7.6-9.2,7.6h-12.1v-27.1h11.8c5.7,0,8.7,3.2,8.7,6.9
			c0,2.4-1,4.4-3,5.5V165.1z M210.2,163.3h8.3c3,0,5.3-1,5.3-4.3c0-3.1-2.6-4.1-5.4-4.1h-8.2L210.2,163.3L210.2,163.3z M218.7,175.9
			c3.1,0,6-1.1,6-4.9c0-3.5-2.7-4.7-5.9-4.7h-8.5v9.6L218.7,175.9L218.7,175.9z"/>
	</g>
	<g>
		<path class="st0" d="M250.7,169.4c0,5.7-3.5,10.1-9.4,10.1c-6,0-9.4-4.4-9.4-10.1s3.4-10.1,9.4-10.1
			C247.3,159.3,250.7,163.7,250.7,169.4z M247.5,169.4c0-3.8-2-7.3-6.2-7.3c-4.3,0-6.2,3.5-6.2,7.3s1.9,7.3,6.2,7.3
			C245.5,176.6,247.5,173.2,247.5,169.4z"/>
	</g>
	<g>
		<path class="st0" d="M273.5,169.4c0,5.7-3.5,10.1-9.4,10.1c-6,0-9.4-4.4-9.4-10.1s3.4-10.1,9.4-10.1
			C270,159.3,273.5,163.7,273.5,169.4z M270.2,169.4c0-3.8-2-7.3-6.2-7.3c-4.3,0-6.2,3.5-6.2,7.3s1.9,7.3,6.2,7.3
			C268.3,176.6,270.2,173.2,270.2,169.4z"/>
	</g>
	<g>
		<path class="st0" d="M292.5,179l-5.5-10.4h-0.8l-4.4,4.9v5.5h-3.2v-27.6h3.2v18.1l9-9.6h3.8l-5.5,5.9l6.8,13.3L292.5,179
			L292.5,179z"/>
	</g>
</g>
<g>
	<path class="st2" d="M377.1,124.9v89H122.7v-89L377.1,124.9 M378.1,123.9H121.7v91h256.5v-91C378.2,123.9,378.1,123.9,378.1,123.9z
		"/>
</g>
<g>
	<path pointer-events="none" class="st4" d="M253.1,117.7c0-57.2,34.9-85.8,104.8-85.8"/>
	<path pointer-events="none" class="st2" d="M372.8,31.9l-20,10l5-10l-5-10L372.8,31.9z"/>
</g>
<g>
	<path pointer-events="none" class="st4" d="M1222.6,31.9c80.1,0,120.1,22.5,120.1,67.6"/>
	<path pointer-events="none" class="st2" d="M1342.8,114.5l-10-20l10,5l10-5L1342.8,114.5z"/>
</g>
</svg>
